<svg aria-roledescription="er" role="graphics-document document" viewBox="0 0 545.7318115234375 897.046875" style="max-width: 545.732px; background-color: white;" xmlns:xlink="http://www.w3.org/1999/xlink" xmlns="http://www.w3.org/2000/svg" width="100%" id="mermaid-1685000650694"><style>#mermaid-1685000650694{font-family:"trebuchet ms",verdana,arial,sans-serif;font-size:16px;fill:#333;}#mermaid-1685000650694 .error-icon{fill:#552222;}#mermaid-1685000650694 .error-text{fill:#552222;stroke:#552222;}#mermaid-1685000650694 .edge-thickness-normal{stroke-width:2px;}#mermaid-1685000650694 .edge-thickness-thick{stroke-width:3.5px;}#mermaid-1685000650694 .edge-pattern-solid{stroke-dasharray:0;}#mermaid-1685000650694 .edge-pattern-dashed{stroke-dasharray:3;}#mermaid-1685000650694 .edge-pattern-dotted{stroke-dasharray:2;}#mermaid-1685000650694 .marker{fill:#333333;stroke:#333333;}#mermaid-1685000650694 .marker.cross{stroke:#333333;}#mermaid-1685000650694 svg{font-family:"trebuchet ms",verdana,arial,sans-serif;font-size:16px;}#mermaid-1685000650694 .entityBox{fill:#ECECFF;stroke:#9370DB;}#mermaid-1685000650694 .attributeBoxOdd{fill:#ffffff;stroke:#9370DB;}#mermaid-1685000650694 .attributeBoxEven{fill:#f2f2f2;stroke:#9370DB;}#mermaid-1685000650694 .relationshipLabelBox{fill:hsl(80, 100%, 96.2745098039%);opacity:0.7;background-color:hsl(80, 100%, 96.2745098039%);}#mermaid-1685000650694 .relationshipLabelBox rect{opacity:0.5;}#mermaid-1685000650694 .relationshipLine{stroke:#333333;}#mermaid-1685000650694 .entityTitleText{text-anchor:middle;font-size:18px;fill:#333;}#mermaid-1685000650694 :root{--mermaid-font-family:"trebuchet ms",verdana,arial,sans-serif;}</style><g/><defs><marker orient="auto" markerHeight="18" markerWidth="18" refY="9" refX="0" id="ONLY_ONE_START"><path d="M9,0 L9,18 M15,0 L15,18" fill="none" stroke="gray"/></marker></defs><defs><marker orient="auto" markerHeight="18" markerWidth="18" refY="9" refX="18" id="ONLY_ONE_END"><path d="M3,0 L3,18 M9,0 L9,18" fill="none" stroke="gray"/></marker></defs><defs><marker orient="auto" markerHeight="18" markerWidth="30" refY="9" refX="0" id="ZERO_OR_ONE_START"><circle r="6" cy="9" cx="21" fill="white" stroke="gray"/><path d="M9,0 L9,18" fill="none" stroke="gray"/></marker></defs><defs><marker orient="auto" markerHeight="18" markerWidth="30" refY="9" refX="30" id="ZERO_OR_ONE_END"><circle r="6" cy="9" cx="9" fill="white" stroke="gray"/><path d="M21,0 L21,18" fill="none" stroke="gray"/></marker></defs><defs><marker orient="auto" markerHeight="36" markerWidth="45" refY="18" refX="18" id="ONE_OR_MORE_START"><path d="M0,18 Q 18,0 36,18 Q 18,36 0,18 M42,9 L42,27" fill="none" stroke="gray"/></marker></defs><defs><marker orient="auto" markerHeight="36" markerWidth="45" refY="18" refX="27" id="ONE_OR_MORE_END"><path d="M3,9 L3,27 M9,18 Q27,0 45,18 Q27,36 9,18" fill="none" stroke="gray"/></marker></defs><defs><marker orient="auto" markerHeight="36" markerWidth="57" refY="18" refX="18" id="ZERO_OR_MORE_START"><circle r="6" cy="18" cx="48" fill="white" stroke="gray"/><path d="M0,18 Q18,0 36,18 Q18,36 0,18" fill="none" stroke="gray"/></marker></defs><defs><marker orient="auto" markerHeight="36" markerWidth="57" refY="18" refX="39" id="ZERO_OR_MORE_END"><circle r="6" cy="18" cx="9" fill="white" stroke="gray"/><path d="M21,18 Q39,0 57,18 Q39,36 21,18" fill="none" stroke="gray"/></marker></defs><path style="stroke: gray; fill: none;" marker-start="url(#ZERO_OR_MORE_START)" marker-end="url(#ONLY_ONE_END)" d="M100.4697265625,582.03125L100.4697265625,590.3645833333334C100.4697265625,598.6979166666666,100.4697265625,615.3645833333334,103.29443570573041,632.03125C106.11914484896083,648.6979166666666,111.76856313542163,665.3645833333334,114.59327227865204,673.6979166666666L117.41798142188244,682.03125" class="er relationshipLine"/><path style="stroke: gray; fill: none;" marker-start="url(#ZERO_OR_MORE_START)" marker-end="url(#ONLY_ONE_END)" d="M100.4697265625,191.015625L100.4697265625,199.34895833333334C100.4697265625,207.68229166666666,100.4697265625,224.34895833333334,100.4697265625,241.015625C100.4697265625,257.6822916666667,100.4697265625,274.3489583333333,100.4697265625,282.6822916666667L100.4697265625,291.015625" class="er relationshipLine"/><path style="stroke: gray; fill: none;" marker-start="url(#ZERO_OR_MORE_START)" marker-end="url(#ONLY_ONE_END)" d="M424.1077945492008,510.03125L429.30792774933394,530.3645833333334C434.50806094946716,550.6979166666666,444.90832734973355,591.3645833333334,450.1084605498668,624.03125C455.30859375,656.6979166666666,455.30859375,681.3645833333334,455.30859375,693.6979166666666L455.30859375,706.03125" class="er relationshipLine"/><path style="stroke: gray; fill: none;" marker-start="url(#ZERO_OR_MORE_START)" marker-end="url(#ONLY_ONE_END)" d="M359.0967125068535,510.03125L346.3138319759261,530.3645833333334C333.5309514449987,550.6979166666666,307.96519038314386,591.3645833333334,285.7598829926787,622.2329330081559C263.55457560221356,653.1012826829784,244.70972188313803,674.171315365957,235.28729502360025,684.7063317074462L225.8648681640625,695.2413480489354" class="er relationshipLine"/><g transform="translate(20,291.015625 )" id="entity-Task-48d7b74a-e47a-5efe-8103-e90c35d0bbcd"><rect height="291.015625" width="160.939453125" y="0" x="0" class="er entityBox"/><text style="dominant-baseline: middle; text-anchor: middle; font-size: 12px;" transform="translate(80.4697265625,13.5078125)" y="0" x="0" id="text-entity-Task-48d7b74a-e47a-5efe-8103-e90c35d0bbcd" class="er entityLabel">Task</text><rect height="24" width="64.31103515625" y="27.015625" x="0" class="er attributeBoxOdd"/><text style="dominant-baseline: middle; font-size: 10.2px;" transform="translate(5,39.015625)" y="0" x="0" id="text-entity-Task-48d7b74a-e47a-5efe-8103-e90c35d0bbcd-attr-1-type" class="er entityLabel">String</text><rect height="24" width="73.5" y="27.015625" x="64.31103515625" class="er attributeBoxOdd"/><text style="dominant-baseline: middle; font-size: 10.2px;" transform="translate(69.31103515625,39.015625)" y="0" x="0" id="text-entity-Task-48d7b74a-e47a-5efe-8103-e90c35d0bbcd-attr-1-name" class="er entityLabel">id</text><rect height="24" width="23.12841796875" y="27.015625" x="137.81103515625" class="er attributeBoxOdd"/><text style="dominant-baseline: middle; font-size: 10.2px;" transform="translate(142.81103515625,39.015625)" y="0" x="0" id="text-entity-Task-48d7b74a-e47a-5efe-8103-e90c35d0bbcd-attr-1-key" class="er entityLabel">PK</text><rect height="24" width="64.31103515625" y="51.015625" x="0" class="er attributeBoxEven"/><text style="dominant-baseline: middle; font-size: 10.2px;" transform="translate(5,63.015625)" y="0" x="0" id="text-entity-Task-48d7b74a-e47a-5efe-8103-e90c35d0bbcd-attr-2-type" class="er entityLabel">String</text><rect height="24" width="73.5" y="51.015625" x="64.31103515625" class="er attributeBoxEven"/><text style="dominant-baseline: middle; font-size: 10.2px;" transform="translate(69.31103515625,63.015625)" y="0" x="0" id="text-entity-Task-48d7b74a-e47a-5efe-8103-e90c35d0bbcd-attr-2-name" class="er entityLabel">name</text><rect height="24" width="23.12841796875" y="51.015625" x="137.81103515625" class="er attributeBoxEven"/><text style="dominant-baseline: middle; font-size: 10.2px;" transform="translate(142.81103515625,63.015625)" y="0" x="0" id="text-entity-Task-48d7b74a-e47a-5efe-8103-e90c35d0bbcd-attr-2-key" class="er entityLabel"/><rect height="24" width="64.31103515625" y="75.015625" x="0" class="er attributeBoxOdd"/><text style="dominant-baseline: middle; font-size: 10.2px;" transform="translate(5,87.015625)" y="0" x="0" id="text-entity-Task-48d7b74a-e47a-5efe-8103-e90c35d0bbcd-attr-3-type" class="er entityLabel">String</text><rect height="24" width="73.5" y="75.015625" x="64.31103515625" class="er attributeBoxOdd"/><text style="dominant-baseline: middle; font-size: 10.2px;" transform="translate(69.31103515625,87.015625)" y="0" x="0" id="text-entity-Task-48d7b74a-e47a-5efe-8103-e90c35d0bbcd-attr-3-name" class="er entityLabel">namespaceId</text><rect height="24" width="23.12841796875" y="75.015625" x="137.81103515625" class="er attributeBoxOdd"/><text style="dominant-baseline: middle; font-size: 10.2px;" transform="translate(142.81103515625,87.015625)" y="0" x="0" id="text-entity-Task-48d7b74a-e47a-5efe-8103-e90c35d0bbcd-attr-3-key" class="er entityLabel">FK</text><rect height="24" width="64.31103515625" y="99.015625" x="0" class="er attributeBoxEven"/><text style="dominant-baseline: middle; font-size: 10.2px;" transform="translate(5,111.015625)" y="0" x="0" id="text-entity-Task-48d7b74a-e47a-5efe-8103-e90c35d0bbcd-attr-4-type" class="er entityLabel">Json</text><rect height="24" width="73.5" y="99.015625" x="64.31103515625" class="er attributeBoxEven"/><text style="dominant-baseline: middle; font-size: 10.2px;" transform="translate(69.31103515625,111.015625)" y="0" x="0" id="text-entity-Task-48d7b74a-e47a-5efe-8103-e90c35d0bbcd-attr-4-name" class="er entityLabel">template</text><rect height="24" width="23.12841796875" y="99.015625" x="137.81103515625" class="er attributeBoxEven"/><text style="dominant-baseline: middle; font-size: 10.2px;" transform="translate(142.81103515625,111.015625)" y="0" x="0" id="text-entity-Task-48d7b74a-e47a-5efe-8103-e90c35d0bbcd-attr-4-key" class="er entityLabel"/><rect height="24" width="64.31103515625" y="123.015625" x="0" class="er attributeBoxOdd"/><text style="dominant-baseline: middle; font-size: 10.2px;" transform="translate(5,135.015625)" y="0" x="0" id="text-entity-Task-48d7b74a-e47a-5efe-8103-e90c35d0bbcd-attr-5-type" class="er entityLabel">String[]</text><rect height="24" width="73.5" y="123.015625" x="64.31103515625" class="er attributeBoxOdd"/><text style="dominant-baseline: middle; font-size: 10.2px;" transform="translate(69.31103515625,135.015625)" y="0" x="0" id="text-entity-Task-48d7b74a-e47a-5efe-8103-e90c35d0bbcd-attr-5-name" class="er entityLabel">targets</text><rect height="24" width="23.12841796875" y="123.015625" x="137.81103515625" class="er attributeBoxOdd"/><text style="dominant-baseline: middle; font-size: 10.2px;" transform="translate(142.81103515625,135.015625)" y="0" x="0" id="text-entity-Task-48d7b74a-e47a-5efe-8103-e90c35d0bbcd-attr-5-key" class="er entityLabel"/><rect height="24" width="64.31103515625" y="147.015625" x="0" class="er attributeBoxEven"/><text style="dominant-baseline: middle; font-size: 10.2px;" transform="translate(5,159.015625)" y="0" x="0" id="text-entity-Task-48d7b74a-e47a-5efe-8103-e90c35d0bbcd-attr-6-type" class="er entityLabel">Recurrence</text><rect height="24" width="73.5" y="147.015625" x="64.31103515625" class="er attributeBoxEven"/><text style="dominant-baseline: middle; font-size: 10.2px;" transform="translate(69.31103515625,159.015625)" y="0" x="0" id="text-entity-Task-48d7b74a-e47a-5efe-8103-e90c35d0bbcd-attr-6-name" class="er entityLabel">recurrence</text><rect height="24" width="23.12841796875" y="147.015625" x="137.81103515625" class="er attributeBoxEven"/><text style="dominant-baseline: middle; font-size: 10.2px;" transform="translate(142.81103515625,159.015625)" y="0" x="0" id="text-entity-Task-48d7b74a-e47a-5efe-8103-e90c35d0bbcd-attr-6-key" class="er entityLabel"/><rect height="24" width="64.31103515625" y="171.015625" x="0" class="er attributeBoxOdd"/><text style="dominant-baseline: middle; font-size: 10.2px;" transform="translate(5,183.015625)" y="0" x="0" id="text-entity-Task-48d7b74a-e47a-5efe-8103-e90c35d0bbcd-attr-7-type" class="er entityLabel">DateTime</text><rect height="24" width="73.5" y="171.015625" x="64.31103515625" class="er attributeBoxOdd"/><text style="dominant-baseline: middle; font-size: 10.2px;" transform="translate(69.31103515625,183.015625)" y="0" x="0" id="text-entity-Task-48d7b74a-e47a-5efe-8103-e90c35d0bbcd-attr-7-name" class="er entityLabel">nextRun</text><rect height="24" width="23.12841796875" y="171.015625" x="137.81103515625" class="er attributeBoxOdd"/><text style="dominant-baseline: middle; font-size: 10.2px;" transform="translate(142.81103515625,183.015625)" y="0" x="0" id="text-entity-Task-48d7b74a-e47a-5efe-8103-e90c35d0bbcd-attr-7-key" class="er entityLabel"/><rect height="24" width="64.31103515625" y="195.015625" x="0" class="er attributeBoxEven"/><text style="dominant-baseline: middle; font-size: 10.2px;" transform="translate(5,207.015625)" y="0" x="0" id="text-entity-Task-48d7b74a-e47a-5efe-8103-e90c35d0bbcd-attr-8-type" class="er entityLabel">DateTime</text><rect height="24" width="73.5" y="195.015625" x="64.31103515625" class="er attributeBoxEven"/><text style="dominant-baseline: middle; font-size: 10.2px;" transform="translate(69.31103515625,207.015625)" y="0" x="0" id="text-entity-Task-48d7b74a-e47a-5efe-8103-e90c35d0bbcd-attr-8-name" class="er entityLabel">lastRun</text><rect height="24" width="23.12841796875" y="195.015625" x="137.81103515625" class="er attributeBoxEven"/><text style="dominant-baseline: middle; font-size: 10.2px;" transform="translate(142.81103515625,207.015625)" y="0" x="0" id="text-entity-Task-48d7b74a-e47a-5efe-8103-e90c35d0bbcd-attr-8-key" class="er entityLabel"/><rect height="24" width="64.31103515625" y="219.015625" x="0" class="er attributeBoxOdd"/><text style="dominant-baseline: middle; font-size: 10.2px;" transform="translate(5,231.015625)" y="0" x="0" id="text-entity-Task-48d7b74a-e47a-5efe-8103-e90c35d0bbcd-attr-9-type" class="er entityLabel">Boolean</text><rect height="24" width="73.5" y="219.015625" x="64.31103515625" class="er attributeBoxOdd"/><text style="dominant-baseline: middle; font-size: 10.2px;" transform="translate(69.31103515625,231.015625)" y="0" x="0" id="text-entity-Task-48d7b74a-e47a-5efe-8103-e90c35d0bbcd-attr-9-name" class="er entityLabel">enabled</text><rect height="24" width="23.12841796875" y="219.015625" x="137.81103515625" class="er attributeBoxOdd"/><text style="dominant-baseline: middle; font-size: 10.2px;" transform="translate(142.81103515625,231.015625)" y="0" x="0" id="text-entity-Task-48d7b74a-e47a-5efe-8103-e90c35d0bbcd-attr-9-key" class="er entityLabel"/><rect height="24" width="64.31103515625" y="243.015625" x="0" class="er attributeBoxEven"/><text style="dominant-baseline: middle; font-size: 10.2px;" transform="translate(5,255.015625)" y="0" x="0" id="text-entity-Task-48d7b74a-e47a-5efe-8103-e90c35d0bbcd-attr-10-type" class="er entityLabel">DateTime</text><rect height="24" width="73.5" y="243.015625" x="64.31103515625" class="er attributeBoxEven"/><text style="dominant-baseline: middle; font-size: 10.2px;" transform="translate(69.31103515625,255.015625)" y="0" x="0" id="text-entity-Task-48d7b74a-e47a-5efe-8103-e90c35d0bbcd-attr-10-name" class="er entityLabel">createdAt</text><rect height="24" width="23.12841796875" y="243.015625" x="137.81103515625" class="er attributeBoxEven"/><text style="dominant-baseline: middle; font-size: 10.2px;" transform="translate(142.81103515625,255.015625)" y="0" x="0" id="text-entity-Task-48d7b74a-e47a-5efe-8103-e90c35d0bbcd-attr-10-key" class="er entityLabel"/><rect height="24" width="64.31103515625" y="267.015625" x="0" class="er attributeBoxOdd"/><text style="dominant-baseline: middle; font-size: 10.2px;" transform="translate(5,279.015625)" y="0" x="0" id="text-entity-Task-48d7b74a-e47a-5efe-8103-e90c35d0bbcd-attr-11-type" class="er entityLabel">DateTime</text><rect height="24" width="73.5" y="267.015625" x="64.31103515625" class="er attributeBoxOdd"/><text style="dominant-baseline: middle; font-size: 10.2px;" transform="translate(69.31103515625,279.015625)" y="0" x="0" id="text-entity-Task-48d7b74a-e47a-5efe-8103-e90c35d0bbcd-attr-11-name" class="er entityLabel">updatedAt</text><rect height="24" width="23.12841796875" y="267.015625" x="137.81103515625" class="er attributeBoxOdd"/><text style="dominant-baseline: middle; font-size: 10.2px;" transform="translate(142.81103515625,279.015625)" y="0" x="0" id="text-entity-Task-48d7b74a-e47a-5efe-8103-e90c35d0bbcd-attr-11-key" class="er entityLabel"/></g><g transform="translate(32.67051696777344,20 )" id="entity-History-d795b226-bae0-5c98-bfd8-6da21fcf809a"><rect height="171.015625" width="135.59841918945312" y="0" x="0" class="er entityBox"/><text style="dominant-baseline: middle; text-anchor: middle; font-size: 12px;" transform="translate(67.79920959472656,13.5078125)" y="0" x="0" id="text-entity-History-d795b226-bae0-5c98-bfd8-6da21fcf809a" class="er entityLabel">History</text><rect height="24" width="56.018768310546875" y="27.015625" x="0" class="er attributeBoxOdd"/><text style="dominant-baseline: middle; font-size: 10.2px;" transform="translate(5,39.015625)" y="0" x="0" id="text-entity-History-d795b226-bae0-5c98-bfd8-6da21fcf809a-attr-1-type" class="er entityLabel">String</text><rect height="24" width="56.45123291015625" y="27.015625" x="56.018768310546875" class="er attributeBoxOdd"/><text style="dominant-baseline: middle; font-size: 10.2px;" transform="translate(61.018768310546875,39.015625)" y="0" x="0" id="text-entity-History-d795b226-bae0-5c98-bfd8-6da21fcf809a-attr-1-name" class="er entityLabel">id</text><rect height="24" width="23.12841796875" y="27.015625" x="112.47000122070312" class="er attributeBoxOdd"/><text style="dominant-baseline: middle; font-size: 10.2px;" transform="translate(117.47000122070312,39.015625)" y="0" x="0" id="text-entity-History-d795b226-bae0-5c98-bfd8-6da21fcf809a-attr-1-key" class="er entityLabel">PK</text><rect height="24" width="56.018768310546875" y="51.015625" x="0" class="er attributeBoxEven"/><text style="dominant-baseline: middle; font-size: 10.2px;" transform="translate(5,63.015625)" y="0" x="0" id="text-entity-History-d795b226-bae0-5c98-bfd8-6da21fcf809a-attr-2-type" class="er entityLabel">String</text><rect height="24" width="56.45123291015625" y="51.015625" x="56.018768310546875" class="er attributeBoxEven"/><text style="dominant-baseline: middle; font-size: 10.2px;" transform="translate(61.018768310546875,63.015625)" y="0" x="0" id="text-entity-History-d795b226-bae0-5c98-bfd8-6da21fcf809a-attr-2-name" class="er entityLabel">taskId</text><rect height="24" width="23.12841796875" y="51.015625" x="112.47000122070312" class="er attributeBoxEven"/><text style="dominant-baseline: middle; font-size: 10.2px;" transform="translate(117.47000122070312,63.015625)" y="0" x="0" id="text-entity-History-d795b226-bae0-5c98-bfd8-6da21fcf809a-attr-2-key" class="er entityLabel">FK</text><rect height="24" width="56.018768310546875" y="75.015625" x="0" class="er attributeBoxOdd"/><text style="dominant-baseline: middle; font-size: 10.2px;" transform="translate(5,87.015625)" y="0" x="0" id="text-entity-History-d795b226-bae0-5c98-bfd8-6da21fcf809a-attr-3-type" class="er entityLabel">String</text><rect height="24" width="56.45123291015625" y="75.015625" x="56.018768310546875" class="er attributeBoxOdd"/><text style="dominant-baseline: middle; font-size: 10.2px;" transform="translate(61.018768310546875,87.015625)" y="0" x="0" id="text-entity-History-d795b226-bae0-5c98-bfd8-6da21fcf809a-attr-3-name" class="er entityLabel">type</text><rect height="24" width="23.12841796875" y="75.015625" x="112.47000122070312" class="er attributeBoxOdd"/><text style="dominant-baseline: middle; font-size: 10.2px;" transform="translate(117.47000122070312,87.015625)" y="0" x="0" id="text-entity-History-d795b226-bae0-5c98-bfd8-6da21fcf809a-attr-3-key" class="er entityLabel"/><rect height="24" width="56.018768310546875" y="99.015625" x="0" class="er attributeBoxEven"/><text style="dominant-baseline: middle; font-size: 10.2px;" transform="translate(5,111.015625)" y="0" x="0" id="text-entity-History-d795b226-bae0-5c98-bfd8-6da21fcf809a-attr-4-type" class="er entityLabel">String</text><rect height="24" width="56.45123291015625" y="99.015625" x="56.018768310546875" class="er attributeBoxEven"/><text style="dominant-baseline: middle; font-size: 10.2px;" transform="translate(61.018768310546875,111.015625)" y="0" x="0" id="text-entity-History-d795b226-bae0-5c98-bfd8-6da21fcf809a-attr-4-name" class="er entityLabel">message</text><rect height="24" width="23.12841796875" y="99.015625" x="112.47000122070312" class="er attributeBoxEven"/><text style="dominant-baseline: middle; font-size: 10.2px;" transform="translate(117.47000122070312,111.015625)" y="0" x="0" id="text-entity-History-d795b226-bae0-5c98-bfd8-6da21fcf809a-attr-4-key" class="er entityLabel"/><rect height="24" width="56.018768310546875" y="123.015625" x="0" class="er attributeBoxOdd"/><text style="dominant-baseline: middle; font-size: 10.2px;" transform="translate(5,135.015625)" y="0" x="0" id="text-entity-History-d795b226-bae0-5c98-bfd8-6da21fcf809a-attr-5-type" class="er entityLabel">Json</text><rect height="24" width="56.45123291015625" y="123.015625" x="56.018768310546875" class="er attributeBoxOdd"/><text style="dominant-baseline: middle; font-size: 10.2px;" transform="translate(61.018768310546875,135.015625)" y="0" x="0" id="text-entity-History-d795b226-bae0-5c98-bfd8-6da21fcf809a-attr-5-name" class="er entityLabel">data</text><rect height="24" width="23.12841796875" y="123.015625" x="112.47000122070312" class="er attributeBoxOdd"/><text style="dominant-baseline: middle; font-size: 10.2px;" transform="translate(117.47000122070312,135.015625)" y="0" x="0" id="text-entity-History-d795b226-bae0-5c98-bfd8-6da21fcf809a-attr-5-key" class="er entityLabel"/><rect height="24" width="56.018768310546875" y="147.015625" x="0" class="er attributeBoxEven"/><text style="dominant-baseline: middle; font-size: 10.2px;" transform="translate(5,159.015625)" y="0" x="0" id="text-entity-History-d795b226-bae0-5c98-bfd8-6da21fcf809a-attr-6-type" class="er entityLabel">DateTime</text><rect height="24" width="56.45123291015625" y="147.015625" x="56.018768310546875" class="er attributeBoxEven"/><text style="dominant-baseline: middle; font-size: 10.2px;" transform="translate(61.018768310546875,159.015625)" y="0" x="0" id="text-entity-History-d795b226-bae0-5c98-bfd8-6da21fcf809a-attr-6-name" class="er entityLabel">createdAt</text><rect height="24" width="23.12841796875" y="147.015625" x="112.47000122070312" class="er attributeBoxEven"/><text style="dominant-baseline: middle; font-size: 10.2px;" transform="translate(117.47000122070312,159.015625)" y="0" x="0" id="text-entity-History-d795b226-bae0-5c98-bfd8-6da21fcf809a-attr-6-key" class="er entityLabel"/></g><g transform="translate(384.8854064941406,706.03125 )" id="entity-User-818c511a-4a32-5484-ba70-875d765a9175"><rect height="147.015625" width="140.84637451171875" y="0" x="0" class="er entityBox"/><text style="dominant-baseline: middle; text-anchor: middle; font-size: 12px;" transform="translate(70.42318725585938,13.5078125)" y="0" x="0" id="text-entity-User-818c511a-4a32-5484-ba70-875d765a9175" class="er entityLabel">User</text><rect height="24" width="56.018768310546875" y="27.015625" x="0" class="er attributeBoxOdd"/><text style="dominant-baseline: middle; font-size: 10.2px;" transform="translate(5,39.015625)" y="0" x="0" id="text-entity-User-818c511a-4a32-5484-ba70-875d765a9175-attr-1-type" class="er entityLabel">String</text><rect height="24" width="60.40087890625" y="27.015625" x="56.018768310546875" class="er attributeBoxOdd"/><text style="dominant-baseline: middle; font-size: 10.2px;" transform="translate(61.018768310546875,39.015625)" y="0" x="0" id="text-entity-User-818c511a-4a32-5484-ba70-875d765a9175-attr-1-name" class="er entityLabel">username</text><rect height="24" width="24.426727294921875" y="27.015625" x="116.41964721679688" class="er attributeBoxOdd"/><text style="dominant-baseline: middle; font-size: 10.2px;" transform="translate(121.41964721679688,39.015625)" y="0" x="0" id="text-entity-User-818c511a-4a32-5484-ba70-875d765a9175-attr-1-key" class="er entityLabel">PK</text><rect height="24" width="56.018768310546875" y="51.015625" x="0" class="er attributeBoxEven"/><text style="dominant-baseline: middle; font-size: 10.2px;" transform="translate(5,63.015625)" y="0" x="0" id="text-entity-User-818c511a-4a32-5484-ba70-875d765a9175-attr-2-type" class="er entityLabel">String</text><rect height="24" width="60.40087890625" y="51.015625" x="56.018768310546875" class="er attributeBoxEven"/><text style="dominant-baseline: middle; font-size: 10.2px;" transform="translate(61.018768310546875,63.015625)" y="0" x="0" id="text-entity-User-818c511a-4a32-5484-ba70-875d765a9175-attr-2-name" class="er entityLabel">token</text><rect height="24" width="24.426727294921875" y="51.015625" x="116.41964721679688" class="er attributeBoxEven"/><text style="dominant-baseline: middle; font-size: 10.2px;" transform="translate(121.41964721679688,63.015625)" y="0" x="0" id="text-entity-User-818c511a-4a32-5484-ba70-875d765a9175-attr-2-key" class="er entityLabel">UK</text><rect height="24" width="56.018768310546875" y="75.015625" x="0" class="er attributeBoxOdd"/><text style="dominant-baseline: middle; font-size: 10.2px;" transform="translate(5,87.015625)" y="0" x="0" id="text-entity-User-818c511a-4a32-5484-ba70-875d765a9175-attr-3-type" class="er entityLabel">Boolean</text><rect height="24" width="60.40087890625" y="75.015625" x="56.018768310546875" class="er attributeBoxOdd"/><text style="dominant-baseline: middle; font-size: 10.2px;" transform="translate(61.018768310546875,87.015625)" y="0" x="0" id="text-entity-User-818c511a-4a32-5484-ba70-875d765a9175-attr-3-name" class="er entityLabel">isAdmin</text><rect height="24" width="24.426727294921875" y="75.015625" x="116.41964721679688" class="er attributeBoxOdd"/><text style="dominant-baseline: middle; font-size: 10.2px;" transform="translate(121.41964721679688,87.015625)" y="0" x="0" id="text-entity-User-818c511a-4a32-5484-ba70-875d765a9175-attr-3-key" class="er entityLabel"/><rect height="24" width="56.018768310546875" y="99.015625" x="0" class="er attributeBoxEven"/><text style="dominant-baseline: middle; font-size: 10.2px;" transform="translate(5,111.015625)" y="0" x="0" id="text-entity-User-818c511a-4a32-5484-ba70-875d765a9175-attr-4-type" class="er entityLabel">DateTime</text><rect height="24" width="60.40087890625" y="99.015625" x="56.018768310546875" class="er attributeBoxEven"/><text style="dominant-baseline: middle; font-size: 10.2px;" transform="translate(61.018768310546875,111.015625)" y="0" x="0" id="text-entity-User-818c511a-4a32-5484-ba70-875d765a9175-attr-4-name" class="er entityLabel">createdAt</text><rect height="24" width="24.426727294921875" y="99.015625" x="116.41964721679688" class="er attributeBoxEven"/><text style="dominant-baseline: middle; font-size: 10.2px;" transform="translate(121.41964721679688,111.015625)" y="0" x="0" id="text-entity-User-818c511a-4a32-5484-ba70-875d765a9175-attr-4-key" class="er entityLabel"/><rect height="24" width="56.018768310546875" y="123.015625" x="0" class="er attributeBoxOdd"/><text style="dominant-baseline: middle; font-size: 10.2px;" transform="translate(5,135.015625)" y="0" x="0" id="text-entity-User-818c511a-4a32-5484-ba70-875d765a9175-attr-5-type" class="er entityLabel">DateTime</text><rect height="24" width="60.40087890625" y="123.015625" x="56.018768310546875" class="er attributeBoxOdd"/><text style="dominant-baseline: middle; font-size: 10.2px;" transform="translate(61.018768310546875,135.015625)" y="0" x="0" id="text-entity-User-818c511a-4a32-5484-ba70-875d765a9175-attr-5-name" class="er entityLabel">updatedAt</text><rect height="24" width="24.426727294921875" y="123.015625" x="116.41964721679688" class="er attributeBoxOdd"/><text style="dominant-baseline: middle; font-size: 10.2px;" transform="translate(121.41964721679688,135.015625)" y="0" x="0" id="text-entity-User-818c511a-4a32-5484-ba70-875d765a9175-attr-5-key" class="er entityLabel"/></g><g transform="translate(321.9189147949219,363.015625 )" id="entity-Membership-1bdacbfb-321f-5cdf-b7f4-23d497a69c9d"><rect height="147.015625" width="166.77935791015625" y="0" x="0" class="er entityBox"/><text style="dominant-baseline: middle; text-anchor: middle; font-size: 12px;" transform="translate(83.38967895507812,13.5078125)" y="0" x="0" id="text-entity-Membership-1bdacbfb-321f-5cdf-b7f4-23d497a69c9d" class="er entityLabel">Membership</text><rect height="24" width="56.018768310546875" y="27.015625" x="0" class="er attributeBoxOdd"/><text style="dominant-baseline: middle; font-size: 10.2px;" transform="translate(5,39.015625)" y="0" x="0" id="text-entity-Membership-1bdacbfb-321f-5cdf-b7f4-23d497a69c9d-attr-1-type" class="er entityLabel">String</text><rect height="24" width="73.5" y="27.015625" x="56.018768310546875" class="er attributeBoxOdd"/><text style="dominant-baseline: middle; font-size: 10.2px;" transform="translate(61.018768310546875,39.015625)" y="0" x="0" id="text-entity-Membership-1bdacbfb-321f-5cdf-b7f4-23d497a69c9d-attr-1-name" class="er entityLabel">username</text><rect height="24" width="37.260589599609375" y="27.015625" x="129.51876831054688" class="er attributeBoxOdd"/><text style="dominant-baseline: middle; font-size: 10.2px;" transform="translate(134.51876831054688,39.015625)" y="0" x="0" id="text-entity-Membership-1bdacbfb-321f-5cdf-b7f4-23d497a69c9d-attr-1-key" class="er entityLabel">PK,FK</text><rect height="24" width="56.018768310546875" y="51.015625" x="0" class="er attributeBoxEven"/><text style="dominant-baseline: middle; font-size: 10.2px;" transform="translate(5,63.015625)" y="0" x="0" id="text-entity-Membership-1bdacbfb-321f-5cdf-b7f4-23d497a69c9d-attr-2-type" class="er entityLabel">String</text><rect height="24" width="73.5" y="51.015625" x="56.018768310546875" class="er attributeBoxEven"/><text style="dominant-baseline: middle; font-size: 10.2px;" transform="translate(61.018768310546875,63.015625)" y="0" x="0" id="text-entity-Membership-1bdacbfb-321f-5cdf-b7f4-23d497a69c9d-attr-2-name" class="er entityLabel">namespaceId</text><rect height="24" width="37.260589599609375" y="51.015625" x="129.51876831054688" class="er attributeBoxEven"/><text style="dominant-baseline: middle; font-size: 10.2px;" transform="translate(134.51876831054688,63.015625)" y="0" x="0" id="text-entity-Membership-1bdacbfb-321f-5cdf-b7f4-23d497a69c9d-attr-2-key" class="er entityLabel">PK,FK</text><rect height="24" width="56.018768310546875" y="75.015625" x="0" class="er attributeBoxOdd"/><text style="dominant-baseline: middle; font-size: 10.2px;" transform="translate(5,87.015625)" y="0" x="0" id="text-entity-Membership-1bdacbfb-321f-5cdf-b7f4-23d497a69c9d-attr-3-type" class="er entityLabel">Access</text><rect height="24" width="73.5" y="75.015625" x="56.018768310546875" class="er attributeBoxOdd"/><text style="dominant-baseline: middle; font-size: 10.2px;" transform="translate(61.018768310546875,87.015625)" y="0" x="0" id="text-entity-Membership-1bdacbfb-321f-5cdf-b7f4-23d497a69c9d-attr-3-name" class="er entityLabel">access</text><rect height="24" width="37.260589599609375" y="75.015625" x="129.51876831054688" class="er attributeBoxOdd"/><text style="dominant-baseline: middle; font-size: 10.2px;" transform="translate(134.51876831054688,87.015625)" y="0" x="0" id="text-entity-Membership-1bdacbfb-321f-5cdf-b7f4-23d497a69c9d-attr-3-key" class="er entityLabel"/><rect height="24" width="56.018768310546875" y="99.015625" x="0" class="er attributeBoxEven"/><text style="dominant-baseline: middle; font-size: 10.2px;" transform="translate(5,111.015625)" y="0" x="0" id="text-entity-Membership-1bdacbfb-321f-5cdf-b7f4-23d497a69c9d-attr-4-type" class="er entityLabel">DateTime</text><rect height="24" width="73.5" y="99.015625" x="56.018768310546875" class="er attributeBoxEven"/><text style="dominant-baseline: middle; font-size: 10.2px;" transform="translate(61.018768310546875,111.015625)" y="0" x="0" id="text-entity-Membership-1bdacbfb-321f-5cdf-b7f4-23d497a69c9d-attr-4-name" class="er entityLabel">createdAt</text><rect height="24" width="37.260589599609375" y="99.015625" x="129.51876831054688" class="er attributeBoxEven"/><text style="dominant-baseline: middle; font-size: 10.2px;" transform="translate(134.51876831054688,111.015625)" y="0" x="0" id="text-entity-Membership-1bdacbfb-321f-5cdf-b7f4-23d497a69c9d-attr-4-key" class="er entityLabel"/><rect height="24" width="56.018768310546875" y="123.015625" x="0" class="er attributeBoxOdd"/><text style="dominant-baseline: middle; font-size: 10.2px;" transform="translate(5,135.015625)" y="0" x="0" id="text-entity-Membership-1bdacbfb-321f-5cdf-b7f4-23d497a69c9d-attr-5-type" class="er entityLabel">DateTime</text><rect height="24" width="73.5" y="123.015625" x="56.018768310546875" class="er attributeBoxOdd"/><text style="dominant-baseline: middle; font-size: 10.2px;" transform="translate(61.018768310546875,135.015625)" y="0" x="0" id="text-entity-Membership-1bdacbfb-321f-5cdf-b7f4-23d497a69c9d-attr-5-name" class="er entityLabel">updatedAt</text><rect height="24" width="37.260589599609375" y="123.015625" x="129.51876831054688" class="er attributeBoxOdd"/><text style="dominant-baseline: middle; font-size: 10.2px;" transform="translate(134.51876831054688,135.015625)" y="0" x="0" id="text-entity-Membership-1bdacbfb-321f-5cdf-b7f4-23d497a69c9d-attr-5-key" class="er entityLabel"/></g><g transform="translate(75.0745849609375,682.03125 )" id="entity-Namespace-bdadf6e7-b3b2-5b0b-a74a-573830c234e6"><rect height="195.015625" width="150.790283203125" y="0" x="0" class="er entityBox"/><text style="dominant-baseline: middle; text-anchor: middle; font-size: 12px;" transform="translate(75.3951416015625,13.5078125)" y="0" x="0" id="text-entity-Namespace-bdadf6e7-b3b2-5b0b-a74a-573830c234e6" class="er entityLabel">Namespace</text><rect height="24" width="56.018768310546875" y="27.015625" x="0" class="er attributeBoxOdd"/><text style="dominant-baseline: middle; font-size: 10.2px;" transform="translate(5,39.015625)" y="0" x="0" id="text-entity-Namespace-bdadf6e7-b3b2-5b0b-a74a-573830c234e6-attr-1-type" class="er entityLabel">String</text><rect height="24" width="71.64309692382812" y="27.015625" x="56.018768310546875" class="er attributeBoxOdd"/><text style="dominant-baseline: middle; font-size: 10.2px;" transform="translate(61.018768310546875,39.015625)" y="0" x="0" id="text-entity-Namespace-bdadf6e7-b3b2-5b0b-a74a-573830c234e6-attr-1-name" class="er entityLabel">id</text><rect height="24" width="23.12841796875" y="27.015625" x="127.661865234375" class="er attributeBoxOdd"/><text style="dominant-baseline: middle; font-size: 10.2px;" transform="translate(132.661865234375,39.015625)" y="0" x="0" id="text-entity-Namespace-bdadf6e7-b3b2-5b0b-a74a-573830c234e6-attr-1-key" class="er entityLabel">PK</text><rect height="24" width="56.018768310546875" y="51.015625" x="0" class="er attributeBoxEven"/><text style="dominant-baseline: middle; font-size: 10.2px;" transform="translate(5,63.015625)" y="0" x="0" id="text-entity-Namespace-bdadf6e7-b3b2-5b0b-a74a-573830c234e6-attr-2-type" class="er entityLabel">String</text><rect height="24" width="71.64309692382812" y="51.015625" x="56.018768310546875" class="er attributeBoxEven"/><text style="dominant-baseline: middle; font-size: 10.2px;" transform="translate(61.018768310546875,63.015625)" y="0" x="0" id="text-entity-Namespace-bdadf6e7-b3b2-5b0b-a74a-573830c234e6-attr-2-name" class="er entityLabel">name</text><rect height="24" width="23.12841796875" y="51.015625" x="127.661865234375" class="er attributeBoxEven"/><text style="dominant-baseline: middle; font-size: 10.2px;" transform="translate(132.661865234375,63.015625)" y="0" x="0" id="text-entity-Namespace-bdadf6e7-b3b2-5b0b-a74a-573830c234e6-attr-2-key" class="er entityLabel"/><rect height="24" width="56.018768310546875" y="75.015625" x="0" class="er attributeBoxOdd"/><text style="dominant-baseline: middle; font-size: 10.2px;" transform="translate(5,87.015625)" y="0" x="0" id="text-entity-Namespace-bdadf6e7-b3b2-5b0b-a74a-573830c234e6-attr-3-type" class="er entityLabel">Json</text><rect height="24" width="71.64309692382812" y="75.015625" x="56.018768310546875" class="er attributeBoxOdd"/><text style="dominant-baseline: middle; font-size: 10.2px;" transform="translate(61.018768310546875,87.015625)" y="0" x="0" id="text-entity-Namespace-bdadf6e7-b3b2-5b0b-a74a-573830c234e6-attr-3-name" class="er entityLabel">fetchLogin</text><rect height="24" width="23.12841796875" y="75.015625" x="127.661865234375" class="er attributeBoxOdd"/><text style="dominant-baseline: middle; font-size: 10.2px;" transform="translate(132.661865234375,87.015625)" y="0" x="0" id="text-entity-Namespace-bdadf6e7-b3b2-5b0b-a74a-573830c234e6-attr-3-key" class="er entityLabel"/><rect height="24" width="56.018768310546875" y="99.015625" x="0" class="er attributeBoxEven"/><text style="dominant-baseline: middle; font-size: 10.2px;" transform="translate(5,111.015625)" y="0" x="0" id="text-entity-Namespace-bdadf6e7-b3b2-5b0b-a74a-573830c234e6-attr-4-type" class="er entityLabel">Json</text><rect height="24" width="71.64309692382812" y="99.015625" x="56.018768310546875" class="er attributeBoxEven"/><text style="dominant-baseline: middle; font-size: 10.2px;" transform="translate(61.018768310546875,111.015625)" y="0" x="0" id="text-entity-Namespace-bdadf6e7-b3b2-5b0b-a74a-573830c234e6-attr-4-name" class="er entityLabel">fetchOptions</text><rect height="24" width="23.12841796875" y="99.015625" x="127.661865234375" class="er attributeBoxEven"/><text style="dominant-baseline: middle; font-size: 10.2px;" transform="translate(132.661865234375,111.015625)" y="0" x="0" id="text-entity-Namespace-bdadf6e7-b3b2-5b0b-a74a-573830c234e6-attr-4-key" class="er entityLabel"/><rect height="24" width="56.018768310546875" y="123.015625" x="0" class="er attributeBoxOdd"/><text style="dominant-baseline: middle; font-size: 10.2px;" transform="translate(5,135.015625)" y="0" x="0" id="text-entity-Namespace-bdadf6e7-b3b2-5b0b-a74a-573830c234e6-attr-5-type" class="er entityLabel">String</text><rect height="24" width="71.64309692382812" y="123.015625" x="56.018768310546875" class="er attributeBoxOdd"/><text style="dominant-baseline: middle; font-size: 10.2px;" transform="translate(61.018768310546875,135.015625)" y="0" x="0" id="text-entity-Namespace-bdadf6e7-b3b2-5b0b-a74a-573830c234e6-attr-5-name" class="er entityLabel">logoId</text><rect height="24" width="23.12841796875" y="123.015625" x="127.661865234375" class="er attributeBoxOdd"/><text style="dominant-baseline: middle; font-size: 10.2px;" transform="translate(132.661865234375,135.015625)" y="0" x="0" id="text-entity-Namespace-bdadf6e7-b3b2-5b0b-a74a-573830c234e6-attr-5-key" class="er entityLabel"/><rect height="24" width="56.018768310546875" y="147.015625" x="0" class="er attributeBoxEven"/><text style="dominant-baseline: middle; font-size: 10.2px;" transform="translate(5,159.015625)" y="0" x="0" id="text-entity-Namespace-bdadf6e7-b3b2-5b0b-a74a-573830c234e6-attr-6-type" class="er entityLabel">DateTime</text><rect height="24" width="71.64309692382812" y="147.015625" x="56.018768310546875" class="er attributeBoxEven"/><text style="dominant-baseline: middle; font-size: 10.2px;" transform="translate(61.018768310546875,159.015625)" y="0" x="0" id="text-entity-Namespace-bdadf6e7-b3b2-5b0b-a74a-573830c234e6-attr-6-name" class="er entityLabel">createdAt</text><rect height="24" width="23.12841796875" y="147.015625" x="127.661865234375" class="er attributeBoxEven"/><text style="dominant-baseline: middle; font-size: 10.2px;" transform="translate(132.661865234375,159.015625)" y="0" x="0" id="text-entity-Namespace-bdadf6e7-b3b2-5b0b-a74a-573830c234e6-attr-6-key" class="er entityLabel"/><rect height="24" width="56.018768310546875" y="171.015625" x="0" class="er attributeBoxOdd"/><text style="dominant-baseline: middle; font-size: 10.2px;" transform="translate(5,183.015625)" y="0" x="0" id="text-entity-Namespace-bdadf6e7-b3b2-5b0b-a74a-573830c234e6-attr-7-type" class="er entityLabel">DateTime</text><rect height="24" width="71.64309692382812" y="171.015625" x="56.018768310546875" class="er attributeBoxOdd"/><text style="dominant-baseline: middle; font-size: 10.2px;" transform="translate(61.018768310546875,183.015625)" y="0" x="0" id="text-entity-Namespace-bdadf6e7-b3b2-5b0b-a74a-573830c234e6-attr-7-name" class="er entityLabel">updatedAt</text><rect height="24" width="23.12841796875" y="171.015625" x="127.661865234375" class="er attributeBoxOdd"/><text style="dominant-baseline: middle; font-size: 10.2px;" transform="translate(132.661865234375,183.015625)" y="0" x="0" id="text-entity-Namespace-bdadf6e7-b3b2-5b0b-a74a-573830c234e6-attr-7-key" class="er entityLabel"/></g><g transform="translate(268.26893615722656,32 )" id="entity-Template-e6e4e8a9-60c7-5e73-91ef-9bcd47c7444b"><rect height="147.015625" width="139.54806518554688" y="0" x="0" class="er entityBox"/><text style="dominant-baseline: middle; text-anchor: middle; font-size: 12px;" transform="translate(69.77403259277344,13.5078125)" y="0" x="0" id="text-entity-Template-e6e4e8a9-60c7-5e73-91ef-9bcd47c7444b" class="er entityLabel">Template</text><rect height="24" width="56.018768310546875" y="27.015625" x="0" class="er attributeBoxOdd"/><text style="dominant-baseline: middle; font-size: 10.2px;" transform="translate(5,39.015625)" y="0" x="0" id="text-entity-Template-e6e4e8a9-60c7-5e73-91ef-9bcd47c7444b-attr-1-type" class="er entityLabel">String</text><rect height="24" width="60.40087890625" y="27.015625" x="56.018768310546875" class="er attributeBoxOdd"/><text style="dominant-baseline: middle; font-size: 10.2px;" transform="translate(61.018768310546875,39.015625)" y="0" x="0" id="text-entity-Template-e6e4e8a9-60c7-5e73-91ef-9bcd47c7444b-attr-1-name" class="er entityLabel">name</text><rect height="24" width="23.12841796875" y="27.015625" x="116.41964721679688" class="er attributeBoxOdd"/><text style="dominant-baseline: middle; font-size: 10.2px;" transform="translate(121.41964721679688,39.015625)" y="0" x="0" id="text-entity-Template-e6e4e8a9-60c7-5e73-91ef-9bcd47c7444b-attr-1-key" class="er entityLabel">PK</text><rect height="24" width="56.018768310546875" y="51.015625" x="0" class="er attributeBoxEven"/><text style="dominant-baseline: middle; font-size: 10.2px;" transform="translate(5,63.015625)" y="0" x="0" id="text-entity-Template-e6e4e8a9-60c7-5e73-91ef-9bcd47c7444b-attr-2-type" class="er entityLabel">Json[]</text><rect height="24" width="60.40087890625" y="51.015625" x="56.018768310546875" class="er attributeBoxEven"/><text style="dominant-baseline: middle; font-size: 10.2px;" transform="translate(61.018768310546875,63.015625)" y="0" x="0" id="text-entity-Template-e6e4e8a9-60c7-5e73-91ef-9bcd47c7444b-attr-2-name" class="er entityLabel">tags</text><rect height="24" width="23.12841796875" y="51.015625" x="116.41964721679688" class="er attributeBoxEven"/><text style="dominant-baseline: middle; font-size: 10.2px;" transform="translate(121.41964721679688,63.015625)" y="0" x="0" id="text-entity-Template-e6e4e8a9-60c7-5e73-91ef-9bcd47c7444b-attr-2-key" class="er entityLabel"/><rect height="24" width="56.018768310546875" y="75.015625" x="0" class="er attributeBoxOdd"/><text style="dominant-baseline: middle; font-size: 10.2px;" transform="translate(5,87.015625)" y="0" x="0" id="text-entity-Template-e6e4e8a9-60c7-5e73-91ef-9bcd47c7444b-attr-3-type" class="er entityLabel">Json</text><rect height="24" width="60.40087890625" y="75.015625" x="56.018768310546875" class="er attributeBoxOdd"/><text style="dominant-baseline: middle; font-size: 10.2px;" transform="translate(61.018768310546875,87.015625)" y="0" x="0" id="text-entity-Template-e6e4e8a9-60c7-5e73-91ef-9bcd47c7444b-attr-3-name" class="er entityLabel">body</text><rect height="24" width="23.12841796875" y="75.015625" x="116.41964721679688" class="er attributeBoxOdd"/><text style="dominant-baseline: middle; font-size: 10.2px;" transform="translate(121.41964721679688,87.015625)" y="0" x="0" id="text-entity-Template-e6e4e8a9-60c7-5e73-91ef-9bcd47c7444b-attr-3-key" class="er entityLabel"/><rect height="24" width="56.018768310546875" y="99.015625" x="0" class="er attributeBoxEven"/><text style="dominant-baseline: middle; font-size: 10.2px;" transform="translate(5,111.015625)" y="0" x="0" id="text-entity-Template-e6e4e8a9-60c7-5e73-91ef-9bcd47c7444b-attr-4-type" class="er entityLabel">DateTime</text><rect height="24" width="60.40087890625" y="99.015625" x="56.018768310546875" class="er attributeBoxEven"/><text style="dominant-baseline: middle; font-size: 10.2px;" transform="translate(61.018768310546875,111.015625)" y="0" x="0" id="text-entity-Template-e6e4e8a9-60c7-5e73-91ef-9bcd47c7444b-attr-4-name" class="er entityLabel">createdAt</text><rect height="24" width="23.12841796875" y="99.015625" x="116.41964721679688" class="er attributeBoxEven"/><text style="dominant-baseline: middle; font-size: 10.2px;" transform="translate(121.41964721679688,111.015625)" y="0" x="0" id="text-entity-Template-e6e4e8a9-60c7-5e73-91ef-9bcd47c7444b-attr-4-key" class="er entityLabel"/><rect height="24" width="56.018768310546875" y="123.015625" x="0" class="er attributeBoxOdd"/><text style="dominant-baseline: middle; font-size: 10.2px;" transform="translate(5,135.015625)" y="0" x="0" id="text-entity-Template-e6e4e8a9-60c7-5e73-91ef-9bcd47c7444b-attr-5-type" class="er entityLabel">DateTime</text><rect height="24" width="60.40087890625" y="123.015625" x="56.018768310546875" class="er attributeBoxOdd"/><text style="dominant-baseline: middle; font-size: 10.2px;" transform="translate(61.018768310546875,135.015625)" y="0" x="0" id="text-entity-Template-e6e4e8a9-60c7-5e73-91ef-9bcd47c7444b-attr-5-name" class="er entityLabel">updatedAt</text><rect height="24" width="23.12841796875" y="123.015625" x="116.41964721679688" class="er attributeBoxOdd"/><text style="dominant-baseline: middle; font-size: 10.2px;" transform="translate(121.41964721679688,135.015625)" y="0" x="0" id="text-entity-Template-e6e4e8a9-60c7-5e73-91ef-9bcd47c7444b-attr-5-key" class="er entityLabel"/></g><rect height="17.015625" width="64.3515625" y="624.4449462890625" x="71.27796936035156" class="er relationshipLabelBox"/><text style="text-anchor: middle; dominant-baseline: middle; font-size: 12px;" y="632.9527587890625" x="103.45375061035156" id="rel1" class="er relationshipLabel">namespace</text><rect height="17.015625" width="23.6640625" y="232.5078125" x="88.6376953125" class="er relationshipLabelBox"/><text style="text-anchor: middle; dominant-baseline: middle; font-size: 12px;" y="241.015625" x="100.4697265625" id="rel2" class="er relationshipLabel">task</text><rect height="17.015625" width="24.81640625" y="598.4427490234375" x="434.6738586425781" class="er relationshipLabelBox"/><text style="text-anchor: middle; dominant-baseline: middle; font-size: 12px;" y="606.9505615234375" x="447.0820617675781" id="rel3" class="er relationshipLabel">user</text><rect height="17.015625" width="64.3515625" y="597.5284423828125" x="264.9503479003906" class="er relationshipLabelBox"/><text style="text-anchor: middle; dominant-baseline: middle; font-size: 12px;" y="606.0362548828125" x="297.1261291503906" id="rel4" class="er relationshipLabel">namespace</text></svg>