<svg aria-roledescription="er" role="graphics-document document" viewBox="0 0 483.2086181640625 849.046875" style="max-width: 483.209px; background-color: white;" xmlns:xlink="http://www.w3.org/1999/xlink" xmlns="http://www.w3.org/2000/svg" width="100%" id="mermaid-1683700417692"><style>#mermaid-1683700417692{font-family:"trebuchet ms",verdana,arial,sans-serif;font-size:16px;fill:#333;}#mermaid-1683700417692 .error-icon{fill:#552222;}#mermaid-1683700417692 .error-text{fill:#552222;stroke:#552222;}#mermaid-1683700417692 .edge-thickness-normal{stroke-width:2px;}#mermaid-1683700417692 .edge-thickness-thick{stroke-width:3.5px;}#mermaid-1683700417692 .edge-pattern-solid{stroke-dasharray:0;}#mermaid-1683700417692 .edge-pattern-dashed{stroke-dasharray:3;}#mermaid-1683700417692 .edge-pattern-dotted{stroke-dasharray:2;}#mermaid-1683700417692 .marker{fill:#333333;stroke:#333333;}#mermaid-1683700417692 .marker.cross{stroke:#333333;}#mermaid-1683700417692 svg{font-family:"trebuchet ms",verdana,arial,sans-serif;font-size:16px;}#mermaid-1683700417692 .entityBox{fill:#ECECFF;stroke:#9370DB;}#mermaid-1683700417692 .attributeBoxOdd{fill:#ffffff;stroke:#9370DB;}#mermaid-1683700417692 .attributeBoxEven{fill:#f2f2f2;stroke:#9370DB;}#mermaid-1683700417692 .relationshipLabelBox{fill:hsl(80, 100%, 96.2745098039%);opacity:0.7;background-color:hsl(80, 100%, 96.2745098039%);}#mermaid-1683700417692 .relationshipLabelBox rect{opacity:0.5;}#mermaid-1683700417692 .relationshipLine{stroke:#333333;}#mermaid-1683700417692 .entityTitleText{text-anchor:middle;font-size:18px;fill:#333;}#mermaid-1683700417692 :root{--mermaid-font-family:"trebuchet ms",verdana,arial,sans-serif;}</style><g/><defs><marker orient="auto" markerHeight="18" markerWidth="18" refY="9" refX="0" id="ONLY_ONE_START"><path d="M9,0 L9,18 M15,0 L15,18" fill="none" stroke="gray"/></marker></defs><defs><marker orient="auto" markerHeight="18" markerWidth="18" refY="9" refX="18" id="ONLY_ONE_END"><path d="M3,0 L3,18 M9,0 L9,18" fill="none" stroke="gray"/></marker></defs><defs><marker orient="auto" markerHeight="18" markerWidth="30" refY="9" refX="0" id="ZERO_OR_ONE_START"><circle r="6" cy="9" cx="21" fill="white" stroke="gray"/><path d="M9,0 L9,18" fill="none" stroke="gray"/></marker></defs><defs><marker orient="auto" markerHeight="18" markerWidth="30" refY="9" refX="30" id="ZERO_OR_ONE_END"><circle r="6" cy="9" cx="9" fill="white" stroke="gray"/><path d="M21,0 L21,18" fill="none" stroke="gray"/></marker></defs><defs><marker orient="auto" markerHeight="36" markerWidth="45" refY="18" refX="18" id="ONE_OR_MORE_START"><path d="M0,18 Q 18,0 36,18 Q 18,36 0,18 M42,9 L42,27" fill="none" stroke="gray"/></marker></defs><defs><marker orient="auto" markerHeight="36" markerWidth="45" refY="18" refX="27" id="ONE_OR_MORE_END"><path d="M3,9 L3,27 M9,18 Q27,0 45,18 Q27,36 9,18" fill="none" stroke="gray"/></marker></defs><defs><marker orient="auto" markerHeight="36" markerWidth="57" refY="18" refX="18" id="ZERO_OR_MORE_START"><circle r="6" cy="18" cx="48" fill="white" stroke="gray"/><path d="M0,18 Q18,0 36,18 Q18,36 0,18" fill="none" stroke="gray"/></marker></defs><defs><marker orient="auto" markerHeight="36" markerWidth="57" refY="18" refX="39" id="ZERO_OR_MORE_END"><circle r="6" cy="18" cx="9" fill="white" stroke="gray"/><path d="M21,18 Q39,0 57,18 Q39,36 21,18" fill="none" stroke="gray"/></marker></defs><path style="stroke: gray; fill: none;" marker-start="url(#ZERO_OR_MORE_START)" marker-end="url(#ONLY_ONE_END)" d="M83.24900817871094,534.03125L83.24900817871094,542.3645833333334C83.24900817871094,550.6979166666666,83.24900817871094,567.3645833333334,86.07371732194134,584.03125C88.89842646517177,600.6979166666666,94.54784475163257,617.3645833333334,97.37255389486297,625.6979166666666L100.19726303809338,634.03125" class="er relationshipLine"/><path style="stroke: gray; fill: none;" marker-start="url(#ZERO_OR_MORE_START)" marker-end="url(#ONLY_ONE_END)" d="M83.24900817871094,167.015625L83.24900817871094,175.34895833333334C83.24900817871094,183.68229166666666,83.24900817871094,200.34895833333334,83.24900817871094,217.015625C83.24900817871094,233.68229166666666,83.24900817871094,250.34895833333334,83.24900817871094,258.6822916666667L83.24900817871094,267.015625" class="er relationshipLine"/><path style="stroke: gray; fill: none;" marker-start="url(#ZERO_OR_MORE_START)" marker-end="url(#ONLY_ONE_END)" d="M368.48809504554646,450.03125L374.57321290213184,472.3645833333333C380.6583307587172,494.6979166666667,392.8285664718879,539.3645833333334,398.9136843284732,574.03125C404.9988021850586,608.6979166666666,404.9988021850586,633.3645833333334,404.9988021850586,645.6979166666666L404.9988021850586,658.03125" class="er relationshipLine"/><path style="stroke: gray; fill: none;" marker-start="url(#ZERO_OR_MORE_START)" marker-end="url(#ONLY_ONE_END)" d="M325.04707430814733,450.03125L311.535632602167,472.3645833333333C298.0241908961868,494.6979166666667,271.0013074842262,539.3645833333334,249.67345189885137,572.1105256706959C228.34559631347656,604.8564680080585,212.7127685546875,625.6816860161169,204.89635467529297,636.0942950201462L197.07994079589844,646.5069040241755" class="er relationshipLine"/><g transform="translate(20,267.015625 )" id="entity-Task-48d7b74a-e47a-5efe-8103-e90c35d0bbcd"><rect height="267.015625" width="126.49801635742188" y="0" x="0" class="er entityBox"/><text style="dominant-baseline: middle; text-anchor: middle; font-size: 12px;" transform="translate(63.24900817871094,13.5078125)" y="0" x="0" id="text-entity-Task-48d7b74a-e47a-5efe-8103-e90c35d0bbcd" class="er entityLabel">Task</text><rect height="24" width="64.31103515625" y="27.015625" x="0" class="er attributeBoxOdd"/><text style="dominant-baseline: middle; font-size: 10.2px;" transform="translate(5,39.015625)" y="0" x="0" id="text-entity-Task-48d7b74a-e47a-5efe-8103-e90c35d0bbcd-attr-1-type" class="er entityLabel">String</text><rect height="24" width="62.186981201171875" y="27.015625" x="64.31103515625" class="er attributeBoxOdd"/><text style="dominant-baseline: middle; font-size: 10.2px;" transform="translate(69.31103515625,39.015625)" y="0" x="0" id="text-entity-Task-48d7b74a-e47a-5efe-8103-e90c35d0bbcd-attr-1-name" class="er entityLabel">id</text><rect height="24" width="64.31103515625" y="51.015625" x="0" class="er attributeBoxEven"/><text style="dominant-baseline: middle; font-size: 10.2px;" transform="translate(5,63.015625)" y="0" x="0" id="text-entity-Task-48d7b74a-e47a-5efe-8103-e90c35d0bbcd-attr-2-type" class="er entityLabel">String</text><rect height="24" width="62.186981201171875" y="51.015625" x="64.31103515625" class="er attributeBoxEven"/><text style="dominant-baseline: middle; font-size: 10.2px;" transform="translate(69.31103515625,63.015625)" y="0" x="0" id="text-entity-Task-48d7b74a-e47a-5efe-8103-e90c35d0bbcd-attr-2-name" class="er entityLabel">name</text><rect height="24" width="64.31103515625" y="75.015625" x="0" class="er attributeBoxOdd"/><text style="dominant-baseline: middle; font-size: 10.2px;" transform="translate(5,87.015625)" y="0" x="0" id="text-entity-Task-48d7b74a-e47a-5efe-8103-e90c35d0bbcd-attr-3-type" class="er entityLabel">Json</text><rect height="24" width="62.186981201171875" y="75.015625" x="64.31103515625" class="er attributeBoxOdd"/><text style="dominant-baseline: middle; font-size: 10.2px;" transform="translate(69.31103515625,87.015625)" y="0" x="0" id="text-entity-Task-48d7b74a-e47a-5efe-8103-e90c35d0bbcd-attr-3-name" class="er entityLabel">template</text><rect height="24" width="64.31103515625" y="99.015625" x="0" class="er attributeBoxEven"/><text style="dominant-baseline: middle; font-size: 10.2px;" transform="translate(5,111.015625)" y="0" x="0" id="text-entity-Task-48d7b74a-e47a-5efe-8103-e90c35d0bbcd-attr-4-type" class="er entityLabel">String</text><rect height="24" width="62.186981201171875" y="99.015625" x="64.31103515625" class="er attributeBoxEven"/><text style="dominant-baseline: middle; font-size: 10.2px;" transform="translate(69.31103515625,111.015625)" y="0" x="0" id="text-entity-Task-48d7b74a-e47a-5efe-8103-e90c35d0bbcd-attr-4-name" class="er entityLabel">targets</text><rect height="24" width="64.31103515625" y="123.015625" x="0" class="er attributeBoxOdd"/><text style="dominant-baseline: middle; font-size: 10.2px;" transform="translate(5,135.015625)" y="0" x="0" id="text-entity-Task-48d7b74a-e47a-5efe-8103-e90c35d0bbcd-attr-5-type" class="er entityLabel">Recurrence</text><rect height="24" width="62.186981201171875" y="123.015625" x="64.31103515625" class="er attributeBoxOdd"/><text style="dominant-baseline: middle; font-size: 10.2px;" transform="translate(69.31103515625,135.015625)" y="0" x="0" id="text-entity-Task-48d7b74a-e47a-5efe-8103-e90c35d0bbcd-attr-5-name" class="er entityLabel">recurrence</text><rect height="24" width="64.31103515625" y="147.015625" x="0" class="er attributeBoxEven"/><text style="dominant-baseline: middle; font-size: 10.2px;" transform="translate(5,159.015625)" y="0" x="0" id="text-entity-Task-48d7b74a-e47a-5efe-8103-e90c35d0bbcd-attr-6-type" class="er entityLabel">DateTime</text><rect height="24" width="62.186981201171875" y="147.015625" x="64.31103515625" class="er attributeBoxEven"/><text style="dominant-baseline: middle; font-size: 10.2px;" transform="translate(69.31103515625,159.015625)" y="0" x="0" id="text-entity-Task-48d7b74a-e47a-5efe-8103-e90c35d0bbcd-attr-6-name" class="er entityLabel">nextRun</text><rect height="24" width="64.31103515625" y="171.015625" x="0" class="er attributeBoxOdd"/><text style="dominant-baseline: middle; font-size: 10.2px;" transform="translate(5,183.015625)" y="0" x="0" id="text-entity-Task-48d7b74a-e47a-5efe-8103-e90c35d0bbcd-attr-7-type" class="er entityLabel">DateTime</text><rect height="24" width="62.186981201171875" y="171.015625" x="64.31103515625" class="er attributeBoxOdd"/><text style="dominant-baseline: middle; font-size: 10.2px;" transform="translate(69.31103515625,183.015625)" y="0" x="0" id="text-entity-Task-48d7b74a-e47a-5efe-8103-e90c35d0bbcd-attr-7-name" class="er entityLabel">lastRun</text><rect height="24" width="64.31103515625" y="195.015625" x="0" class="er attributeBoxEven"/><text style="dominant-baseline: middle; font-size: 10.2px;" transform="translate(5,207.015625)" y="0" x="0" id="text-entity-Task-48d7b74a-e47a-5efe-8103-e90c35d0bbcd-attr-8-type" class="er entityLabel">Boolean</text><rect height="24" width="62.186981201171875" y="195.015625" x="64.31103515625" class="er attributeBoxEven"/><text style="dominant-baseline: middle; font-size: 10.2px;" transform="translate(69.31103515625,207.015625)" y="0" x="0" id="text-entity-Task-48d7b74a-e47a-5efe-8103-e90c35d0bbcd-attr-8-name" class="er entityLabel">enabled</text><rect height="24" width="64.31103515625" y="219.015625" x="0" class="er attributeBoxOdd"/><text style="dominant-baseline: middle; font-size: 10.2px;" transform="translate(5,231.015625)" y="0" x="0" id="text-entity-Task-48d7b74a-e47a-5efe-8103-e90c35d0bbcd-attr-9-type" class="er entityLabel">DateTime</text><rect height="24" width="62.186981201171875" y="219.015625" x="64.31103515625" class="er attributeBoxOdd"/><text style="dominant-baseline: middle; font-size: 10.2px;" transform="translate(69.31103515625,231.015625)" y="0" x="0" id="text-entity-Task-48d7b74a-e47a-5efe-8103-e90c35d0bbcd-attr-9-name" class="er entityLabel">createdAt</text><rect height="24" width="64.31103515625" y="243.015625" x="0" class="er attributeBoxEven"/><text style="dominant-baseline: middle; font-size: 10.2px;" transform="translate(5,255.015625)" y="0" x="0" id="text-entity-Task-48d7b74a-e47a-5efe-8103-e90c35d0bbcd-attr-10-type" class="er entityLabel">DateTime</text><rect height="24" width="62.186981201171875" y="243.015625" x="64.31103515625" class="er attributeBoxEven"/><text style="dominant-baseline: middle; font-size: 10.2px;" transform="translate(69.31103515625,255.015625)" y="0" x="0" id="text-entity-Task-48d7b74a-e47a-5efe-8103-e90c35d0bbcd-attr-10-name" class="er entityLabel">updatedAt</text></g><g transform="translate(27.014007568359375,20 )" id="entity-History-d795b226-bae0-5c98-bfd8-6da21fcf809a"><rect height="147.015625" width="112.47000122070312" y="0" x="0" class="er entityBox"/><text style="dominant-baseline: middle; text-anchor: middle; font-size: 12px;" transform="translate(56.23500061035156,13.5078125)" y="0" x="0" id="text-entity-History-d795b226-bae0-5c98-bfd8-6da21fcf809a" class="er entityLabel">History</text><rect height="24" width="56.018768310546875" y="27.015625" x="0" class="er attributeBoxOdd"/><text style="dominant-baseline: middle; font-size: 10.2px;" transform="translate(5,39.015625)" y="0" x="0" id="text-entity-History-d795b226-bae0-5c98-bfd8-6da21fcf809a-attr-1-type" class="er entityLabel">String</text><rect height="24" width="56.45123291015625" y="27.015625" x="56.018768310546875" class="er attributeBoxOdd"/><text style="dominant-baseline: middle; font-size: 10.2px;" transform="translate(61.018768310546875,39.015625)" y="0" x="0" id="text-entity-History-d795b226-bae0-5c98-bfd8-6da21fcf809a-attr-1-name" class="er entityLabel">id</text><rect height="24" width="56.018768310546875" y="51.015625" x="0" class="er attributeBoxEven"/><text style="dominant-baseline: middle; font-size: 10.2px;" transform="translate(5,63.015625)" y="0" x="0" id="text-entity-History-d795b226-bae0-5c98-bfd8-6da21fcf809a-attr-2-type" class="er entityLabel">String</text><rect height="24" width="56.45123291015625" y="51.015625" x="56.018768310546875" class="er attributeBoxEven"/><text style="dominant-baseline: middle; font-size: 10.2px;" transform="translate(61.018768310546875,63.015625)" y="0" x="0" id="text-entity-History-d795b226-bae0-5c98-bfd8-6da21fcf809a-attr-2-name" class="er entityLabel">type</text><rect height="24" width="56.018768310546875" y="75.015625" x="0" class="er attributeBoxOdd"/><text style="dominant-baseline: middle; font-size: 10.2px;" transform="translate(5,87.015625)" y="0" x="0" id="text-entity-History-d795b226-bae0-5c98-bfd8-6da21fcf809a-attr-3-type" class="er entityLabel">String</text><rect height="24" width="56.45123291015625" y="75.015625" x="56.018768310546875" class="er attributeBoxOdd"/><text style="dominant-baseline: middle; font-size: 10.2px;" transform="translate(61.018768310546875,87.015625)" y="0" x="0" id="text-entity-History-d795b226-bae0-5c98-bfd8-6da21fcf809a-attr-3-name" class="er entityLabel">message</text><rect height="24" width="56.018768310546875" y="99.015625" x="0" class="er attributeBoxEven"/><text style="dominant-baseline: middle; font-size: 10.2px;" transform="translate(5,111.015625)" y="0" x="0" id="text-entity-History-d795b226-bae0-5c98-bfd8-6da21fcf809a-attr-4-type" class="er entityLabel">Json</text><rect height="24" width="56.45123291015625" y="99.015625" x="56.018768310546875" class="er attributeBoxEven"/><text style="dominant-baseline: middle; font-size: 10.2px;" transform="translate(61.018768310546875,111.015625)" y="0" x="0" id="text-entity-History-d795b226-bae0-5c98-bfd8-6da21fcf809a-attr-4-name" class="er entityLabel">data</text><rect height="24" width="56.018768310546875" y="123.015625" x="0" class="er attributeBoxOdd"/><text style="dominant-baseline: middle; font-size: 10.2px;" transform="translate(5,135.015625)" y="0" x="0" id="text-entity-History-d795b226-bae0-5c98-bfd8-6da21fcf809a-attr-5-type" class="er entityLabel">DateTime</text><rect height="24" width="56.45123291015625" y="123.015625" x="56.018768310546875" class="er attributeBoxOdd"/><text style="dominant-baseline: middle; font-size: 10.2px;" transform="translate(61.018768310546875,135.015625)" y="0" x="0" id="text-entity-History-d795b226-bae0-5c98-bfd8-6da21fcf809a-attr-5-name" class="er entityLabel">createdAt</text></g><g transform="translate(346.78897857666016,658.03125 )" id="entity-User-818c511a-4a32-5484-ba70-875d765a9175"><rect height="147.015625" width="116.41964721679688" y="0" x="0" class="er entityBox"/><text style="dominant-baseline: middle; text-anchor: middle; font-size: 12px;" transform="translate(58.20982360839844,13.5078125)" y="0" x="0" id="text-entity-User-818c511a-4a32-5484-ba70-875d765a9175" class="er entityLabel">User</text><rect height="24" width="56.018768310546875" y="27.015625" x="0" class="er attributeBoxOdd"/><text style="dominant-baseline: middle; font-size: 10.2px;" transform="translate(5,39.015625)" y="0" x="0" id="text-entity-User-818c511a-4a32-5484-ba70-875d765a9175-attr-1-type" class="er entityLabel">String</text><rect height="24" width="60.40087890625" y="27.015625" x="56.018768310546875" class="er attributeBoxOdd"/><text style="dominant-baseline: middle; font-size: 10.2px;" transform="translate(61.018768310546875,39.015625)" y="0" x="0" id="text-entity-User-818c511a-4a32-5484-ba70-875d765a9175-attr-1-name" class="er entityLabel">username</text><rect height="24" width="56.018768310546875" y="51.015625" x="0" class="er attributeBoxEven"/><text style="dominant-baseline: middle; font-size: 10.2px;" transform="translate(5,63.015625)" y="0" x="0" id="text-entity-User-818c511a-4a32-5484-ba70-875d765a9175-attr-2-type" class="er entityLabel">String</text><rect height="24" width="60.40087890625" y="51.015625" x="56.018768310546875" class="er attributeBoxEven"/><text style="dominant-baseline: middle; font-size: 10.2px;" transform="translate(61.018768310546875,63.015625)" y="0" x="0" id="text-entity-User-818c511a-4a32-5484-ba70-875d765a9175-attr-2-name" class="er entityLabel">token</text><rect height="24" width="56.018768310546875" y="75.015625" x="0" class="er attributeBoxOdd"/><text style="dominant-baseline: middle; font-size: 10.2px;" transform="translate(5,87.015625)" y="0" x="0" id="text-entity-User-818c511a-4a32-5484-ba70-875d765a9175-attr-3-type" class="er entityLabel">Boolean</text><rect height="24" width="60.40087890625" y="75.015625" x="56.018768310546875" class="er attributeBoxOdd"/><text style="dominant-baseline: middle; font-size: 10.2px;" transform="translate(61.018768310546875,87.015625)" y="0" x="0" id="text-entity-User-818c511a-4a32-5484-ba70-875d765a9175-attr-3-name" class="er entityLabel">isAdmin</text><rect height="24" width="56.018768310546875" y="99.015625" x="0" class="er attributeBoxEven"/><text style="dominant-baseline: middle; font-size: 10.2px;" transform="translate(5,111.015625)" y="0" x="0" id="text-entity-User-818c511a-4a32-5484-ba70-875d765a9175-attr-4-type" class="er entityLabel">DateTime</text><rect height="24" width="60.40087890625" y="99.015625" x="56.018768310546875" class="er attributeBoxEven"/><text style="dominant-baseline: middle; font-size: 10.2px;" transform="translate(61.018768310546875,111.015625)" y="0" x="0" id="text-entity-User-818c511a-4a32-5484-ba70-875d765a9175-attr-4-name" class="er entityLabel">createdAt</text><rect height="24" width="56.018768310546875" y="123.015625" x="0" class="er attributeBoxOdd"/><text style="dominant-baseline: middle; font-size: 10.2px;" transform="translate(5,135.015625)" y="0" x="0" id="text-entity-User-818c511a-4a32-5484-ba70-875d765a9175-attr-5-type" class="er entityLabel">DateTime</text><rect height="24" width="60.40087890625" y="123.015625" x="56.018768310546875" class="er attributeBoxOdd"/><text style="dominant-baseline: middle; font-size: 10.2px;" transform="translate(61.018768310546875,135.015625)" y="0" x="0" id="text-entity-User-818c511a-4a32-5484-ba70-875d765a9175-attr-5-name" class="er entityLabel">updatedAt</text></g><g transform="translate(296.78897857666016,351.015625 )" id="entity-Membership-1bdacbfb-321f-5cdf-b7f4-23d497a69c9d"><rect height="99.015625" width="116.41964721679688" y="0" x="0" class="er entityBox"/><text style="dominant-baseline: middle; text-anchor: middle; font-size: 12px;" transform="translate(58.20982360839844,13.5078125)" y="0" x="0" id="text-entity-Membership-1bdacbfb-321f-5cdf-b7f4-23d497a69c9d" class="er entityLabel">Membership</text><rect height="24" width="56.018768310546875" y="27.015625" x="0" class="er attributeBoxOdd"/><text style="dominant-baseline: middle; font-size: 10.2px;" transform="translate(5,39.015625)" y="0" x="0" id="text-entity-Membership-1bdacbfb-321f-5cdf-b7f4-23d497a69c9d-attr-1-type" class="er entityLabel">Access</text><rect height="24" width="60.40087890625" y="27.015625" x="56.018768310546875" class="er attributeBoxOdd"/><text style="dominant-baseline: middle; font-size: 10.2px;" transform="translate(61.018768310546875,39.015625)" y="0" x="0" id="text-entity-Membership-1bdacbfb-321f-5cdf-b7f4-23d497a69c9d-attr-1-name" class="er entityLabel">access</text><rect height="24" width="56.018768310546875" y="51.015625" x="0" class="er attributeBoxEven"/><text style="dominant-baseline: middle; font-size: 10.2px;" transform="translate(5,63.015625)" y="0" x="0" id="text-entity-Membership-1bdacbfb-321f-5cdf-b7f4-23d497a69c9d-attr-2-type" class="er entityLabel">DateTime</text><rect height="24" width="60.40087890625" y="51.015625" x="56.018768310546875" class="er attributeBoxEven"/><text style="dominant-baseline: middle; font-size: 10.2px;" transform="translate(61.018768310546875,63.015625)" y="0" x="0" id="text-entity-Membership-1bdacbfb-321f-5cdf-b7f4-23d497a69c9d-attr-2-name" class="er entityLabel">createdAt</text><rect height="24" width="56.018768310546875" y="75.015625" x="0" class="er attributeBoxOdd"/><text style="dominant-baseline: middle; font-size: 10.2px;" transform="translate(5,87.015625)" y="0" x="0" id="text-entity-Membership-1bdacbfb-321f-5cdf-b7f4-23d497a69c9d-attr-3-type" class="er entityLabel">DateTime</text><rect height="24" width="60.40087890625" y="75.015625" x="56.018768310546875" class="er attributeBoxOdd"/><text style="dominant-baseline: middle; font-size: 10.2px;" transform="translate(61.018768310546875,87.015625)" y="0" x="0" id="text-entity-Membership-1bdacbfb-321f-5cdf-b7f4-23d497a69c9d-attr-3-name" class="er entityLabel">updatedAt</text></g><g transform="translate(69.41807556152344,634.03125 )" id="entity-Namespace-bdadf6e7-b3b2-5b0b-a74a-573830c234e6"><rect height="195.015625" width="127.661865234375" y="0" x="0" class="er entityBox"/><text style="dominant-baseline: middle; text-anchor: middle; font-size: 12px;" transform="translate(63.8309326171875,13.5078125)" y="0" x="0" id="text-entity-Namespace-bdadf6e7-b3b2-5b0b-a74a-573830c234e6" class="er entityLabel">Namespace</text><rect height="24" width="56.018768310546875" y="27.015625" x="0" class="er attributeBoxOdd"/><text style="dominant-baseline: middle; font-size: 10.2px;" transform="translate(5,39.015625)" y="0" x="0" id="text-entity-Namespace-bdadf6e7-b3b2-5b0b-a74a-573830c234e6-attr-1-type" class="er entityLabel">String</text><rect height="24" width="71.64309692382812" y="27.015625" x="56.018768310546875" class="er attributeBoxOdd"/><text style="dominant-baseline: middle; font-size: 10.2px;" transform="translate(61.018768310546875,39.015625)" y="0" x="0" id="text-entity-Namespace-bdadf6e7-b3b2-5b0b-a74a-573830c234e6-attr-1-name" class="er entityLabel">id</text><rect height="24" width="56.018768310546875" y="51.015625" x="0" class="er attributeBoxEven"/><text style="dominant-baseline: middle; font-size: 10.2px;" transform="translate(5,63.015625)" y="0" x="0" id="text-entity-Namespace-bdadf6e7-b3b2-5b0b-a74a-573830c234e6-attr-2-type" class="er entityLabel">String</text><rect height="24" width="71.64309692382812" y="51.015625" x="56.018768310546875" class="er attributeBoxEven"/><text style="dominant-baseline: middle; font-size: 10.2px;" transform="translate(61.018768310546875,63.015625)" y="0" x="0" id="text-entity-Namespace-bdadf6e7-b3b2-5b0b-a74a-573830c234e6-attr-2-name" class="er entityLabel">name</text><rect height="24" width="56.018768310546875" y="75.015625" x="0" class="er attributeBoxOdd"/><text style="dominant-baseline: middle; font-size: 10.2px;" transform="translate(5,87.015625)" y="0" x="0" id="text-entity-Namespace-bdadf6e7-b3b2-5b0b-a74a-573830c234e6-attr-3-type" class="er entityLabel">Json</text><rect height="24" width="71.64309692382812" y="75.015625" x="56.018768310546875" class="er attributeBoxOdd"/><text style="dominant-baseline: middle; font-size: 10.2px;" transform="translate(61.018768310546875,87.015625)" y="0" x="0" id="text-entity-Namespace-bdadf6e7-b3b2-5b0b-a74a-573830c234e6-attr-3-name" class="er entityLabel">fetchLogin</text><rect height="24" width="56.018768310546875" y="99.015625" x="0" class="er attributeBoxEven"/><text style="dominant-baseline: middle; font-size: 10.2px;" transform="translate(5,111.015625)" y="0" x="0" id="text-entity-Namespace-bdadf6e7-b3b2-5b0b-a74a-573830c234e6-attr-4-type" class="er entityLabel">Json</text><rect height="24" width="71.64309692382812" y="99.015625" x="56.018768310546875" class="er attributeBoxEven"/><text style="dominant-baseline: middle; font-size: 10.2px;" transform="translate(61.018768310546875,111.015625)" y="0" x="0" id="text-entity-Namespace-bdadf6e7-b3b2-5b0b-a74a-573830c234e6-attr-4-name" class="er entityLabel">fetchOptions</text><rect height="24" width="56.018768310546875" y="123.015625" x="0" class="er attributeBoxOdd"/><text style="dominant-baseline: middle; font-size: 10.2px;" transform="translate(5,135.015625)" y="0" x="0" id="text-entity-Namespace-bdadf6e7-b3b2-5b0b-a74a-573830c234e6-attr-5-type" class="er entityLabel">String</text><rect height="24" width="71.64309692382812" y="123.015625" x="56.018768310546875" class="er attributeBoxOdd"/><text style="dominant-baseline: middle; font-size: 10.2px;" transform="translate(61.018768310546875,135.015625)" y="0" x="0" id="text-entity-Namespace-bdadf6e7-b3b2-5b0b-a74a-573830c234e6-attr-5-name" class="er entityLabel">logoId</text><rect height="24" width="56.018768310546875" y="147.015625" x="0" class="er attributeBoxEven"/><text style="dominant-baseline: middle; font-size: 10.2px;" transform="translate(5,159.015625)" y="0" x="0" id="text-entity-Namespace-bdadf6e7-b3b2-5b0b-a74a-573830c234e6-attr-6-type" class="er entityLabel">DateTime</text><rect height="24" width="71.64309692382812" y="147.015625" x="56.018768310546875" class="er attributeBoxEven"/><text style="dominant-baseline: middle; font-size: 10.2px;" transform="translate(61.018768310546875,159.015625)" y="0" x="0" id="text-entity-Namespace-bdadf6e7-b3b2-5b0b-a74a-573830c234e6-attr-6-name" class="er entityLabel">createdAt</text><rect height="24" width="56.018768310546875" y="171.015625" x="0" class="er attributeBoxOdd"/><text style="dominant-baseline: middle; font-size: 10.2px;" transform="translate(5,183.015625)" y="0" x="0" id="text-entity-Namespace-bdadf6e7-b3b2-5b0b-a74a-573830c234e6-attr-7-type" class="er entityLabel">DateTime</text><rect height="24" width="71.64309692382812" y="171.015625" x="56.018768310546875" class="er attributeBoxOdd"/><text style="dominant-baseline: middle; font-size: 10.2px;" transform="translate(61.018768310546875,183.015625)" y="0" x="0" id="text-entity-Namespace-bdadf6e7-b3b2-5b0b-a74a-573830c234e6-attr-7-name" class="er entityLabel">updatedAt</text></g><g transform="translate(239.4840087890625,20 )" id="entity-Template-e6e4e8a9-60c7-5e73-91ef-9bcd47c7444b"><rect height="147.015625" width="116.41964721679688" y="0" x="0" class="er entityBox"/><text style="dominant-baseline: middle; text-anchor: middle; font-size: 12px;" transform="translate(58.20982360839844,13.5078125)" y="0" x="0" id="text-entity-Template-e6e4e8a9-60c7-5e73-91ef-9bcd47c7444b" class="er entityLabel">Template</text><rect height="24" width="56.018768310546875" y="27.015625" x="0" class="er attributeBoxOdd"/><text style="dominant-baseline: middle; font-size: 10.2px;" transform="translate(5,39.015625)" y="0" x="0" id="text-entity-Template-e6e4e8a9-60c7-5e73-91ef-9bcd47c7444b-attr-1-type" class="er entityLabel">String</text><rect height="24" width="60.40087890625" y="27.015625" x="56.018768310546875" class="er attributeBoxOdd"/><text style="dominant-baseline: middle; font-size: 10.2px;" transform="translate(61.018768310546875,39.015625)" y="0" x="0" id="text-entity-Template-e6e4e8a9-60c7-5e73-91ef-9bcd47c7444b-attr-1-name" class="er entityLabel">name</text><rect height="24" width="56.018768310546875" y="51.015625" x="0" class="er attributeBoxEven"/><text style="dominant-baseline: middle; font-size: 10.2px;" transform="translate(5,63.015625)" y="0" x="0" id="text-entity-Template-e6e4e8a9-60c7-5e73-91ef-9bcd47c7444b-attr-2-type" class="er entityLabel">Json</text><rect height="24" width="60.40087890625" y="51.015625" x="56.018768310546875" class="er attributeBoxEven"/><text style="dominant-baseline: middle; font-size: 10.2px;" transform="translate(61.018768310546875,63.015625)" y="0" x="0" id="text-entity-Template-e6e4e8a9-60c7-5e73-91ef-9bcd47c7444b-attr-2-name" class="er entityLabel">tags</text><rect height="24" width="56.018768310546875" y="75.015625" x="0" class="er attributeBoxOdd"/><text style="dominant-baseline: middle; font-size: 10.2px;" transform="translate(5,87.015625)" y="0" x="0" id="text-entity-Template-e6e4e8a9-60c7-5e73-91ef-9bcd47c7444b-attr-3-type" class="er entityLabel">Json</text><rect height="24" width="60.40087890625" y="75.015625" x="56.018768310546875" class="er attributeBoxOdd"/><text style="dominant-baseline: middle; font-size: 10.2px;" transform="translate(61.018768310546875,87.015625)" y="0" x="0" id="text-entity-Template-e6e4e8a9-60c7-5e73-91ef-9bcd47c7444b-attr-3-name" class="er entityLabel">body</text><rect height="24" width="56.018768310546875" y="99.015625" x="0" class="er attributeBoxEven"/><text style="dominant-baseline: middle; font-size: 10.2px;" transform="translate(5,111.015625)" y="0" x="0" id="text-entity-Template-e6e4e8a9-60c7-5e73-91ef-9bcd47c7444b-attr-4-type" class="er entityLabel">DateTime</text><rect height="24" width="60.40087890625" y="99.015625" x="56.018768310546875" class="er attributeBoxEven"/><text style="dominant-baseline: middle; font-size: 10.2px;" transform="translate(61.018768310546875,111.015625)" y="0" x="0" id="text-entity-Template-e6e4e8a9-60c7-5e73-91ef-9bcd47c7444b-attr-4-name" class="er entityLabel">createdAt</text><rect height="24" width="56.018768310546875" y="123.015625" x="0" class="er attributeBoxOdd"/><text style="dominant-baseline: middle; font-size: 10.2px;" transform="translate(5,135.015625)" y="0" x="0" id="text-entity-Template-e6e4e8a9-60c7-5e73-91ef-9bcd47c7444b-attr-5-type" class="er entityLabel">DateTime</text><rect height="24" width="60.40087890625" y="123.015625" x="56.018768310546875" class="er attributeBoxOdd"/><text style="dominant-baseline: middle; font-size: 10.2px;" transform="translate(61.018768310546875,135.015625)" y="0" x="0" id="text-entity-Template-e6e4e8a9-60c7-5e73-91ef-9bcd47c7444b-attr-5-name" class="er entityLabel">updatedAt</text></g><rect height="17.015625" width="64.3515625" y="576.4449462890625" x="54.0572509765625" class="er relationshipLabelBox"/><text style="text-anchor: middle; dominant-baseline: middle; font-size: 12px;" y="584.9527587890625" x="86.2330322265625" id="rel1" class="er relationshipLabel">namespace</text><rect height="17.015625" width="23.6640625" y="208.5078125" x="71.41697692871094" class="er relationshipLabelBox"/><text style="text-anchor: middle; dominant-baseline: middle; font-size: 12px;" y="217.015625" x="83.24900817871094" id="rel2" class="er relationshipLabel">task</text><rect height="17.015625" width="24.81640625" y="544.2503051757812" x="382.3215026855469" class="er relationshipLabelBox"/><text style="text-anchor: middle; dominant-baseline: middle; font-size: 12px;" y="552.7581176757812" x="394.7297058105469" id="rel3" class="er relationshipLabel">user</text><rect height="17.015625" width="64.3515625" y="541.5575561523438" x="231.60714721679688" class="er relationshipLabelBox"/><text style="text-anchor: middle; dominant-baseline: middle; font-size: 12px;" y="550.0653686523438" x="263.7829284667969" id="rel4" class="er relationshipLabel">namespace</text></svg>