<svg aria-roledescription="er" viewBox="0 0 231.269287109375 774" style="max-width: 231.269px; background-color: white;" xmlns:xlink="http://www.w3.org/1999/xlink" xmlns="http://www.w3.org/2000/svg" width="100%" id="mermaid-0"><style>#mermaid-0{font-family:"trebuchet ms",verdana,arial,sans-serif;font-size:16px;fill:#000000;}#mermaid-0 .error-icon{fill:#552222;}#mermaid-0 .error-text{fill:#552222;stroke:#552222;}#mermaid-0 .edge-thickness-normal{stroke-width:2px;}#mermaid-0 .edge-thickness-thick{stroke-width:3.5px;}#mermaid-0 .edge-pattern-solid{stroke-dasharray:0;}#mermaid-0 .edge-pattern-dashed{stroke-dasharray:3;}#mermaid-0 .edge-pattern-dotted{stroke-dasharray:2;}#mermaid-0 .marker{fill:#000000;stroke:#000000;}#mermaid-0 .marker.cross{stroke:#000000;}#mermaid-0 svg{font-family:"trebuchet ms",verdana,arial,sans-serif;font-size:16px;}#mermaid-0 .entityBox{fill:#cde498;stroke:#13540c;}#mermaid-0 .attributeBoxOdd{fill:#ffffff;stroke:#13540c;}#mermaid-0 .attributeBoxEven{fill:#f2f2f2;stroke:#13540c;}#mermaid-0 .relationshipLabelBox{fill:hsl(78.1578947368, 58.4615384615%, 84.5098039216%);opacity:0.7;background-color:hsl(78.1578947368, 58.4615384615%, 84.5098039216%);}#mermaid-0 .relationshipLabelBox rect{opacity:0.5;}#mermaid-0 .relationshipLine{stroke:#000000;}#mermaid-0 .entityTitleText{text-anchor:middle;font-size:18px;fill:#000000;}#mermaid-0 :root{--mermaid-font-family:"trebuchet ms",verdana,arial,sans-serif;}</style><g/><defs><marker orient="auto" markerHeight="18" markerWidth="18" refY="9" refX="0" id="ONLY_ONE_START"><path d="M9,0 L9,18 M15,0 L15,18" fill="none" stroke="gray"/></marker></defs><defs><marker orient="auto" markerHeight="18" markerWidth="18" refY="9" refX="18" id="ONLY_ONE_END"><path d="M3,0 L3,18 M9,0 L9,18" fill="none" stroke="gray"/></marker></defs><defs><marker orient="auto" markerHeight="18" markerWidth="30" refY="9" refX="0" id="ZERO_OR_ONE_START"><circle r="6" cy="9" cx="21" fill="white" stroke="gray"/><path d="M9,0 L9,18" fill="none" stroke="gray"/></marker></defs><defs><marker orient="auto" markerHeight="18" markerWidth="30" refY="9" refX="30" id="ZERO_OR_ONE_END"><circle r="6" cy="9" cx="9" fill="white" stroke="gray"/><path d="M21,0 L21,18" fill="none" stroke="gray"/></marker></defs><defs><marker orient="auto" markerHeight="36" markerWidth="45" refY="18" refX="18" id="ONE_OR_MORE_START"><path d="M0,18 Q 18,0 36,18 Q 18,36 0,18 M42,9 L42,27" fill="none" stroke="gray"/></marker></defs><defs><marker orient="auto" markerHeight="36" markerWidth="45" refY="18" refX="27" id="ONE_OR_MORE_END"><path d="M3,9 L3,27 M9,18 Q27,0 45,18 Q27,36 9,18" fill="none" stroke="gray"/></marker></defs><defs><marker orient="auto" markerHeight="36" markerWidth="57" refY="18" refX="18" id="ZERO_OR_MORE_START"><circle r="6" cy="18" cx="48" fill="white" stroke="gray"/><path d="M0,18 Q18,0 36,18 Q18,36 0,18" fill="none" stroke="gray"/></marker></defs><defs><marker orient="auto" markerHeight="36" markerWidth="57" refY="18" refX="39" id="ZERO_OR_MORE_END"><circle r="6" cy="18" cx="9" fill="white" stroke="gray"/><path d="M21,18 Q39,0 57,18 Q39,36 21,18" fill="none" stroke="gray"/></marker></defs><path style="stroke: gray; fill: none;" marker-start="url(#ZERO_OR_ONE_START)" marker-end="url(#ONLY_ONE_END)" d="M115.6346435546875,504L115.6346435546875,512.3333333333334C115.6346435546875,520.6666666666666,115.6346435546875,537.3333333333334,115.6346435546875,554C115.6346435546875,570.6666666666666,115.6346435546875,587.3333333333334,115.6346435546875,595.6666666666666L115.6346435546875,604" class="er relationshipLine"/><path style="stroke: gray; fill: none;" marker-start="url(#ZERO_OR_MORE_START)" marker-end="url(#ONLY_ONE_END)" d="M115.6346435546875,149L115.6346435546875,157.33333333333334C115.6346435546875,165.66666666666666,115.6346435546875,182.33333333333334,115.6346435546875,199C115.6346435546875,215.66666666666666,115.6346435546875,232.33333333333334,115.6346435546875,240.66666666666666L115.6346435546875,249" class="er relationshipLine"/><g transform="translate(44.101837158203125,604 )" id="entity-Recurrence-5f17e161-dd24-4bf1-b933-fedb2bbfb26e"><rect height="150" width="143.06561279296875" y="0" x="0" class="er entityBox"/><text style="dominant-baseline: middle; text-anchor: middle; font-size: 12px;" transform="translate(71.53280639648438,12)" y="0" x="0" id="text-entity-Recurrence-5f17e161-dd24-4bf1-b933-fedb2bbfb26e" class="er entityLabel">Recurrence</text><rect height="21" width="71.53280639648438" y="24" x="0" class="er attributeBoxOdd"/><text style="dominant-baseline: middle; font-size: 10.2px;" transform="translate(5,34.5)" y="0" x="0" id="text-entity-Recurrence-5f17e161-dd24-4bf1-b933-fedb2bbfb26e-attr-1-type" class="er entityLabel">DAILY</text><rect height="21" width="71.53280639648438" y="24" x="71.53280639648438" class="er attributeBoxOdd"/><text style="dominant-baseline: middle; font-size: 10.2px;" transform="translate(76.53280639648438,34.5)" y="0" x="0" id="text-entity-Recurrence-5f17e161-dd24-4bf1-b933-fedb2bbfb26e-attr-1-name" class="er entityLabel">DAILY</text><rect height="21" width="71.53280639648438" y="45" x="0" class="er attributeBoxEven"/><text style="dominant-baseline: middle; font-size: 10.2px;" transform="translate(5,55.5)" y="0" x="0" id="text-entity-Recurrence-5f17e161-dd24-4bf1-b933-fedb2bbfb26e-attr-2-type" class="er entityLabel">WEEKLY</text><rect height="21" width="71.53280639648438" y="45" x="71.53280639648438" class="er attributeBoxEven"/><text style="dominant-baseline: middle; font-size: 10.2px;" transform="translate(76.53280639648438,55.5)" y="0" x="0" id="text-entity-Recurrence-5f17e161-dd24-4bf1-b933-fedb2bbfb26e-attr-2-name" class="er entityLabel">WEEKLY</text><rect height="21" width="71.53280639648438" y="66" x="0" class="er attributeBoxOdd"/><text style="dominant-baseline: middle; font-size: 10.2px;" transform="translate(5,76.5)" y="0" x="0" id="text-entity-Recurrence-5f17e161-dd24-4bf1-b933-fedb2bbfb26e-attr-3-type" class="er entityLabel">MONTHLY</text><rect height="21" width="71.53280639648438" y="66" x="71.53280639648438" class="er attributeBoxOdd"/><text style="dominant-baseline: middle; font-size: 10.2px;" transform="translate(76.53280639648438,76.5)" y="0" x="0" id="text-entity-Recurrence-5f17e161-dd24-4bf1-b933-fedb2bbfb26e-attr-3-name" class="er entityLabel">MONTHLY</text><rect height="21" width="71.53280639648438" y="87" x="0" class="er attributeBoxEven"/><text style="dominant-baseline: middle; font-size: 10.2px;" transform="translate(5,97.5)" y="0" x="0" id="text-entity-Recurrence-5f17e161-dd24-4bf1-b933-fedb2bbfb26e-attr-4-type" class="er entityLabel">QUARTERLY</text><rect height="21" width="71.53280639648438" y="87" x="71.53280639648438" class="er attributeBoxEven"/><text style="dominant-baseline: middle; font-size: 10.2px;" transform="translate(76.53280639648438,97.5)" y="0" x="0" id="text-entity-Recurrence-5f17e161-dd24-4bf1-b933-fedb2bbfb26e-attr-4-name" class="er entityLabel">QUARTERLY</text><rect height="21" width="71.53280639648438" y="108" x="0" class="er attributeBoxOdd"/><text style="dominant-baseline: middle; font-size: 10.2px;" transform="translate(5,118.5)" y="0" x="0" id="text-entity-Recurrence-5f17e161-dd24-4bf1-b933-fedb2bbfb26e-attr-5-type" class="er entityLabel">BIENNIAL</text><rect height="21" width="71.53280639648438" y="108" x="71.53280639648438" class="er attributeBoxOdd"/><text style="dominant-baseline: middle; font-size: 10.2px;" transform="translate(76.53280639648438,118.5)" y="0" x="0" id="text-entity-Recurrence-5f17e161-dd24-4bf1-b933-fedb2bbfb26e-attr-5-name" class="er entityLabel">BIENNIAL</text><rect height="21" width="71.53280639648438" y="129" x="0" class="er attributeBoxEven"/><text style="dominant-baseline: middle; font-size: 10.2px;" transform="translate(5,139.5)" y="0" x="0" id="text-entity-Recurrence-5f17e161-dd24-4bf1-b933-fedb2bbfb26e-attr-6-type" class="er entityLabel">YEARLY</text><rect height="21" width="71.53280639648438" y="129" x="71.53280639648438" class="er attributeBoxEven"/><text style="dominant-baseline: middle; font-size: 10.2px;" transform="translate(76.53280639648438,139.5)" y="0" x="0" id="text-entity-Recurrence-5f17e161-dd24-4bf1-b933-fedb2bbfb26e-attr-6-name" class="er entityLabel">YEARLY</text></g><g transform="translate(20,249 )" id="entity-Task-4d389832-472b-4f2f-a147-a13b0e043d98"><rect height="255" width="191.269287109375" y="0" x="0" class="er entityBox"/><text style="dominant-baseline: middle; text-anchor: middle; font-size: 12px;" transform="translate(95.6346435546875,12)" y="0" x="0" id="text-entity-Task-4d389832-472b-4f2f-a147-a13b0e043d98" class="er entityLabel">Task</text><rect height="21" width="62.992828369140625" y="24" x="0" class="er attributeBoxOdd"/><text style="dominant-baseline: middle; font-size: 10.2px;" transform="translate(5,34.5)" y="0" x="0" id="text-entity-Task-4d389832-472b-4f2f-a147-a13b0e043d98-attr-1-type" class="er entityLabel">String</text><rect height="21" width="59.02825927734375" y="24" x="62.992828369140625" class="er attributeBoxOdd"/><text style="dominant-baseline: middle; font-size: 10.2px;" transform="translate(67.99282836914062,34.5)" y="0" x="0" id="text-entity-Task-4d389832-472b-4f2f-a147-a13b0e043d98-attr-1-name" class="er entityLabel">id</text><rect height="21" width="23.79498291015625" y="24" x="122.02108764648438" class="er attributeBoxOdd"/><text style="dominant-baseline: middle; font-size: 10.2px;" transform="translate(127.02108764648438,34.5)" y="0" x="0" id="text-entity-Task-4d389832-472b-4f2f-a147-a13b0e043d98-attr-1-key" class="er entityLabel">PK</text><rect height="21" width="45.453216552734375" y="24" x="145.81607055664062" class="er attributeBoxOdd"/><text style="dominant-baseline: middle; font-size: 10.2px;" transform="translate(150.81607055664062,34.5)" y="0" x="0" id="text-entity-Task-4d389832-472b-4f2f-a147-a13b0e043d98-attr-1-comment" class="er entityLabel"/><rect height="21" width="62.992828369140625" y="45" x="0" class="er attributeBoxEven"/><text style="dominant-baseline: middle; font-size: 10.2px;" transform="translate(5,55.5)" y="0" x="0" id="text-entity-Task-4d389832-472b-4f2f-a147-a13b0e043d98-attr-2-type" class="er entityLabel">String</text><rect height="21" width="59.02825927734375" y="45" x="62.992828369140625" class="er attributeBoxEven"/><text style="dominant-baseline: middle; font-size: 10.2px;" transform="translate(67.99282836914062,55.5)" y="0" x="0" id="text-entity-Task-4d389832-472b-4f2f-a147-a13b0e043d98-attr-2-name" class="er entityLabel">name</text><rect height="21" width="23.79498291015625" y="45" x="122.02108764648438" class="er attributeBoxEven"/><text style="dominant-baseline: middle; font-size: 10.2px;" transform="translate(127.02108764648438,55.5)" y="0" x="0" id="text-entity-Task-4d389832-472b-4f2f-a147-a13b0e043d98-attr-2-key" class="er entityLabel"/><rect height="21" width="45.453216552734375" y="45" x="145.81607055664062" class="er attributeBoxEven"/><text style="dominant-baseline: middle; font-size: 10.2px;" transform="translate(150.81607055664062,55.5)" y="0" x="0" id="text-entity-Task-4d389832-472b-4f2f-a147-a13b0e043d98-attr-2-comment" class="er entityLabel"/><rect height="21" width="62.992828369140625" y="66" x="0" class="er attributeBoxOdd"/><text style="dominant-baseline: middle; font-size: 10.2px;" transform="translate(5,76.5)" y="0" x="0" id="text-entity-Task-4d389832-472b-4f2f-a147-a13b0e043d98-attr-3-type" class="er entityLabel">String</text><rect height="21" width="59.02825927734375" y="66" x="62.992828369140625" class="er attributeBoxOdd"/><text style="dominant-baseline: middle; font-size: 10.2px;" transform="translate(67.99282836914062,76.5)" y="0" x="0" id="text-entity-Task-4d389832-472b-4f2f-a147-a13b0e043d98-attr-3-name" class="er entityLabel">institution</text><rect height="21" width="23.79498291015625" y="66" x="122.02108764648438" class="er attributeBoxOdd"/><text style="dominant-baseline: middle; font-size: 10.2px;" transform="translate(127.02108764648438,76.5)" y="0" x="0" id="text-entity-Task-4d389832-472b-4f2f-a147-a13b0e043d98-attr-3-key" class="er entityLabel"/><rect height="21" width="45.453216552734375" y="66" x="145.81607055664062" class="er attributeBoxOdd"/><text style="dominant-baseline: middle; font-size: 10.2px;" transform="translate(150.81607055664062,76.5)" y="0" x="0" id="text-entity-Task-4d389832-472b-4f2f-a147-a13b0e043d98-attr-3-comment" class="er entityLabel"/><rect height="21" width="62.992828369140625" y="87" x="0" class="er attributeBoxEven"/><text style="dominant-baseline: middle; font-size: 10.2px;" transform="translate(5,97.5)" y="0" x="0" id="text-entity-Task-4d389832-472b-4f2f-a147-a13b0e043d98-attr-4-type" class="er entityLabel">Json</text><rect height="21" width="59.02825927734375" y="87" x="62.992828369140625" class="er attributeBoxEven"/><text style="dominant-baseline: middle; font-size: 10.2px;" transform="translate(67.99282836914062,97.5)" y="0" x="0" id="text-entity-Task-4d389832-472b-4f2f-a147-a13b0e043d98-attr-4-name" class="er entityLabel">template</text><rect height="21" width="23.79498291015625" y="87" x="122.02108764648438" class="er attributeBoxEven"/><text style="dominant-baseline: middle; font-size: 10.2px;" transform="translate(127.02108764648438,97.5)" y="0" x="0" id="text-entity-Task-4d389832-472b-4f2f-a147-a13b0e043d98-attr-4-key" class="er entityLabel"/><rect height="21" width="45.453216552734375" y="87" x="145.81607055664062" class="er attributeBoxEven"/><text style="dominant-baseline: middle; font-size: 10.2px;" transform="translate(150.81607055664062,97.5)" y="0" x="0" id="text-entity-Task-4d389832-472b-4f2f-a147-a13b0e043d98-attr-4-comment" class="er entityLabel"/><rect height="21" width="62.992828369140625" y="108" x="0" class="er attributeBoxOdd"/><text style="dominant-baseline: middle; font-size: 10.2px;" transform="translate(5,118.5)" y="0" x="0" id="text-entity-Task-4d389832-472b-4f2f-a147-a13b0e043d98-attr-5-type" class="er entityLabel">String</text><rect height="21" width="59.02825927734375" y="108" x="62.992828369140625" class="er attributeBoxOdd"/><text style="dominant-baseline: middle; font-size: 10.2px;" transform="translate(67.99282836914062,118.5)" y="0" x="0" id="text-entity-Task-4d389832-472b-4f2f-a147-a13b0e043d98-attr-5-name" class="er entityLabel">targets</text><rect height="21" width="23.79498291015625" y="108" x="122.02108764648438" class="er attributeBoxOdd"/><text style="dominant-baseline: middle; font-size: 10.2px;" transform="translate(127.02108764648438,118.5)" y="0" x="0" id="text-entity-Task-4d389832-472b-4f2f-a147-a13b0e043d98-attr-5-key" class="er entityLabel"/><rect height="21" width="45.453216552734375" y="108" x="145.81607055664062" class="er attributeBoxOdd"/><text style="dominant-baseline: middle; font-size: 10.2px;" transform="translate(150.81607055664062,118.5)" y="0" x="0" id="text-entity-Task-4d389832-472b-4f2f-a147-a13b0e043d98-attr-5-comment" class="er entityLabel"/><rect height="21" width="62.992828369140625" y="129" x="0" class="er attributeBoxEven"/><text style="dominant-baseline: middle; font-size: 10.2px;" transform="translate(5,139.5)" y="0" x="0" id="text-entity-Task-4d389832-472b-4f2f-a147-a13b0e043d98-attr-6-type" class="er entityLabel">Recurrence</text><rect height="21" width="59.02825927734375" y="129" x="62.992828369140625" class="er attributeBoxEven"/><text style="dominant-baseline: middle; font-size: 10.2px;" transform="translate(67.99282836914062,139.5)" y="0" x="0" id="text-entity-Task-4d389832-472b-4f2f-a147-a13b0e043d98-attr-6-name" class="er entityLabel">recurrence</text><rect height="21" width="23.79498291015625" y="129" x="122.02108764648438" class="er attributeBoxEven"/><text style="dominant-baseline: middle; font-size: 10.2px;" transform="translate(127.02108764648438,139.5)" y="0" x="0" id="text-entity-Task-4d389832-472b-4f2f-a147-a13b0e043d98-attr-6-key" class="er entityLabel"/><rect height="21" width="45.453216552734375" y="129" x="145.81607055664062" class="er attributeBoxEven"/><text style="dominant-baseline: middle; font-size: 10.2px;" transform="translate(150.81607055664062,139.5)" y="0" x="0" id="text-entity-Task-4d389832-472b-4f2f-a147-a13b0e043d98-attr-6-comment" class="er entityLabel"/><rect height="21" width="62.992828369140625" y="150" x="0" class="er attributeBoxOdd"/><text style="dominant-baseline: middle; font-size: 10.2px;" transform="translate(5,160.5)" y="0" x="0" id="text-entity-Task-4d389832-472b-4f2f-a147-a13b0e043d98-attr-7-type" class="er entityLabel">DateTime</text><rect height="21" width="59.02825927734375" y="150" x="62.992828369140625" class="er attributeBoxOdd"/><text style="dominant-baseline: middle; font-size: 10.2px;" transform="translate(67.99282836914062,160.5)" y="0" x="0" id="text-entity-Task-4d389832-472b-4f2f-a147-a13b0e043d98-attr-7-name" class="er entityLabel">nextRun</text><rect height="21" width="23.79498291015625" y="150" x="122.02108764648438" class="er attributeBoxOdd"/><text style="dominant-baseline: middle; font-size: 10.2px;" transform="translate(127.02108764648438,160.5)" y="0" x="0" id="text-entity-Task-4d389832-472b-4f2f-a147-a13b0e043d98-attr-7-key" class="er entityLabel"/><rect height="21" width="45.453216552734375" y="150" x="145.81607055664062" class="er attributeBoxOdd"/><text style="dominant-baseline: middle; font-size: 10.2px;" transform="translate(150.81607055664062,160.5)" y="0" x="0" id="text-entity-Task-4d389832-472b-4f2f-a147-a13b0e043d98-attr-7-comment" class="er entityLabel"/><rect height="21" width="62.992828369140625" y="171" x="0" class="er attributeBoxEven"/><text style="dominant-baseline: middle; font-size: 10.2px;" transform="translate(5,181.5)" y="0" x="0" id="text-entity-Task-4d389832-472b-4f2f-a147-a13b0e043d98-attr-8-type" class="er entityLabel">DateTime</text><rect height="21" width="59.02825927734375" y="171" x="62.992828369140625" class="er attributeBoxEven"/><text style="dominant-baseline: middle; font-size: 10.2px;" transform="translate(67.99282836914062,181.5)" y="0" x="0" id="text-entity-Task-4d389832-472b-4f2f-a147-a13b0e043d98-attr-8-name" class="er entityLabel">lastRun</text><rect height="21" width="23.79498291015625" y="171" x="122.02108764648438" class="er attributeBoxEven"/><text style="dominant-baseline: middle; font-size: 10.2px;" transform="translate(127.02108764648438,181.5)" y="0" x="0" id="text-entity-Task-4d389832-472b-4f2f-a147-a13b0e043d98-attr-8-key" class="er entityLabel"/><rect height="21" width="45.453216552734375" y="171" x="145.81607055664062" class="er attributeBoxEven"/><text style="dominant-baseline: middle; font-size: 10.2px;" transform="translate(150.81607055664062,181.5)" y="0" x="0" id="text-entity-Task-4d389832-472b-4f2f-a147-a13b0e043d98-attr-8-comment" class="er entityLabel">nullable</text><rect height="21" width="62.992828369140625" y="192" x="0" class="er attributeBoxOdd"/><text style="dominant-baseline: middle; font-size: 10.2px;" transform="translate(5,202.5)" y="0" x="0" id="text-entity-Task-4d389832-472b-4f2f-a147-a13b0e043d98-attr-9-type" class="er entityLabel">Boolean</text><rect height="21" width="59.02825927734375" y="192" x="62.992828369140625" class="er attributeBoxOdd"/><text style="dominant-baseline: middle; font-size: 10.2px;" transform="translate(67.99282836914062,202.5)" y="0" x="0" id="text-entity-Task-4d389832-472b-4f2f-a147-a13b0e043d98-attr-9-name" class="er entityLabel">enabled</text><rect height="21" width="23.79498291015625" y="192" x="122.02108764648438" class="er attributeBoxOdd"/><text style="dominant-baseline: middle; font-size: 10.2px;" transform="translate(127.02108764648438,202.5)" y="0" x="0" id="text-entity-Task-4d389832-472b-4f2f-a147-a13b0e043d98-attr-9-key" class="er entityLabel"/><rect height="21" width="45.453216552734375" y="192" x="145.81607055664062" class="er attributeBoxOdd"/><text style="dominant-baseline: middle; font-size: 10.2px;" transform="translate(150.81607055664062,202.5)" y="0" x="0" id="text-entity-Task-4d389832-472b-4f2f-a147-a13b0e043d98-attr-9-comment" class="er entityLabel"/><rect height="21" width="62.992828369140625" y="213" x="0" class="er attributeBoxEven"/><text style="dominant-baseline: middle; font-size: 10.2px;" transform="translate(5,223.5)" y="0" x="0" id="text-entity-Task-4d389832-472b-4f2f-a147-a13b0e043d98-attr-10-type" class="er entityLabel">DateTime</text><rect height="21" width="59.02825927734375" y="213" x="62.992828369140625" class="er attributeBoxEven"/><text style="dominant-baseline: middle; font-size: 10.2px;" transform="translate(67.99282836914062,223.5)" y="0" x="0" id="text-entity-Task-4d389832-472b-4f2f-a147-a13b0e043d98-attr-10-name" class="er entityLabel">createdAt</text><rect height="21" width="23.79498291015625" y="213" x="122.02108764648438" class="er attributeBoxEven"/><text style="dominant-baseline: middle; font-size: 10.2px;" transform="translate(127.02108764648438,223.5)" y="0" x="0" id="text-entity-Task-4d389832-472b-4f2f-a147-a13b0e043d98-attr-10-key" class="er entityLabel"/><rect height="21" width="45.453216552734375" y="213" x="145.81607055664062" class="er attributeBoxEven"/><text style="dominant-baseline: middle; font-size: 10.2px;" transform="translate(150.81607055664062,223.5)" y="0" x="0" id="text-entity-Task-4d389832-472b-4f2f-a147-a13b0e043d98-attr-10-comment" class="er entityLabel"/><rect height="21" width="62.992828369140625" y="234" x="0" class="er attributeBoxOdd"/><text style="dominant-baseline: middle; font-size: 10.2px;" transform="translate(5,244.5)" y="0" x="0" id="text-entity-Task-4d389832-472b-4f2f-a147-a13b0e043d98-attr-11-type" class="er entityLabel">DateTime</text><rect height="21" width="59.02825927734375" y="234" x="62.992828369140625" class="er attributeBoxOdd"/><text style="dominant-baseline: middle; font-size: 10.2px;" transform="translate(67.99282836914062,244.5)" y="0" x="0" id="text-entity-Task-4d389832-472b-4f2f-a147-a13b0e043d98-attr-11-name" class="er entityLabel">updatedAt</text><rect height="21" width="23.79498291015625" y="234" x="122.02108764648438" class="er attributeBoxOdd"/><text style="dominant-baseline: middle; font-size: 10.2px;" transform="translate(127.02108764648438,244.5)" y="0" x="0" id="text-entity-Task-4d389832-472b-4f2f-a147-a13b0e043d98-attr-11-key" class="er entityLabel"/><rect height="21" width="45.453216552734375" y="234" x="145.81607055664062" class="er attributeBoxOdd"/><text style="dominant-baseline: middle; font-size: 10.2px;" transform="translate(150.81607055664062,244.5)" y="0" x="0" id="text-entity-Task-4d389832-472b-4f2f-a147-a13b0e043d98-attr-11-comment" class="er entityLabel">nullable</text></g><g transform="translate(27.066543579101562,20 )" id="entity-History-fb6ecad1-3608-4806-81ab-b0046040dd20"><rect height="129" width="177.13619995117188" y="0" x="0" class="er entityBox"/><text style="dominant-baseline: middle; text-anchor: middle; font-size: 12px;" transform="translate(88.56809997558594,12)" y="0" x="0" id="text-entity-History-fb6ecad1-3608-4806-81ab-b0046040dd20" class="er entityLabel">History</text><rect height="21" width="54.113128662109375" y="24" x="0" class="er attributeBoxOdd"/><text style="dominant-baseline: middle; font-size: 10.2px;" transform="translate(5,34.5)" y="0" x="0" id="text-entity-History-fb6ecad1-3608-4806-81ab-b0046040dd20-attr-1-type" class="er entityLabel">String</text><rect height="21" width="53.774871826171875" y="24" x="54.113128662109375" class="er attributeBoxOdd"/><text style="dominant-baseline: middle; font-size: 10.2px;" transform="translate(59.113128662109375,34.5)" y="0" x="0" id="text-entity-History-fb6ecad1-3608-4806-81ab-b0046040dd20-attr-1-name" class="er entityLabel">id</text><rect height="21" width="23.79498291015625" y="24" x="107.88800048828125" class="er attributeBoxOdd"/><text style="dominant-baseline: middle; font-size: 10.2px;" transform="translate(112.88800048828125,34.5)" y="0" x="0" id="text-entity-History-fb6ecad1-3608-4806-81ab-b0046040dd20-attr-1-key" class="er entityLabel">PK</text><rect height="21" width="45.453216552734375" y="24" x="131.6829833984375" class="er attributeBoxOdd"/><text style="dominant-baseline: middle; font-size: 10.2px;" transform="translate(136.6829833984375,34.5)" y="0" x="0" id="text-entity-History-fb6ecad1-3608-4806-81ab-b0046040dd20-attr-1-comment" class="er entityLabel"/><rect height="21" width="54.113128662109375" y="45" x="0" class="er attributeBoxEven"/><text style="dominant-baseline: middle; font-size: 10.2px;" transform="translate(5,55.5)" y="0" x="0" id="text-entity-History-fb6ecad1-3608-4806-81ab-b0046040dd20-attr-2-type" class="er entityLabel">String</text><rect height="21" width="53.774871826171875" y="45" x="54.113128662109375" class="er attributeBoxEven"/><text style="dominant-baseline: middle; font-size: 10.2px;" transform="translate(59.113128662109375,55.5)" y="0" x="0" id="text-entity-History-fb6ecad1-3608-4806-81ab-b0046040dd20-attr-2-name" class="er entityLabel">type</text><rect height="21" width="23.79498291015625" y="45" x="107.88800048828125" class="er attributeBoxEven"/><text style="dominant-baseline: middle; font-size: 10.2px;" transform="translate(112.88800048828125,55.5)" y="0" x="0" id="text-entity-History-fb6ecad1-3608-4806-81ab-b0046040dd20-attr-2-key" class="er entityLabel"/><rect height="21" width="45.453216552734375" y="45" x="131.6829833984375" class="er attributeBoxEven"/><text style="dominant-baseline: middle; font-size: 10.2px;" transform="translate(136.6829833984375,55.5)" y="0" x="0" id="text-entity-History-fb6ecad1-3608-4806-81ab-b0046040dd20-attr-2-comment" class="er entityLabel"/><rect height="21" width="54.113128662109375" y="66" x="0" class="er attributeBoxOdd"/><text style="dominant-baseline: middle; font-size: 10.2px;" transform="translate(5,76.5)" y="0" x="0" id="text-entity-History-fb6ecad1-3608-4806-81ab-b0046040dd20-attr-3-type" class="er entityLabel">String</text><rect height="21" width="53.774871826171875" y="66" x="54.113128662109375" class="er attributeBoxOdd"/><text style="dominant-baseline: middle; font-size: 10.2px;" transform="translate(59.113128662109375,76.5)" y="0" x="0" id="text-entity-History-fb6ecad1-3608-4806-81ab-b0046040dd20-attr-3-name" class="er entityLabel">message</text><rect height="21" width="23.79498291015625" y="66" x="107.88800048828125" class="er attributeBoxOdd"/><text style="dominant-baseline: middle; font-size: 10.2px;" transform="translate(112.88800048828125,76.5)" y="0" x="0" id="text-entity-History-fb6ecad1-3608-4806-81ab-b0046040dd20-attr-3-key" class="er entityLabel"/><rect height="21" width="45.453216552734375" y="66" x="131.6829833984375" class="er attributeBoxOdd"/><text style="dominant-baseline: middle; font-size: 10.2px;" transform="translate(136.6829833984375,76.5)" y="0" x="0" id="text-entity-History-fb6ecad1-3608-4806-81ab-b0046040dd20-attr-3-comment" class="er entityLabel"/><rect height="21" width="54.113128662109375" y="87" x="0" class="er attributeBoxEven"/><text style="dominant-baseline: middle; font-size: 10.2px;" transform="translate(5,97.5)" y="0" x="0" id="text-entity-History-fb6ecad1-3608-4806-81ab-b0046040dd20-attr-4-type" class="er entityLabel">Json</text><rect height="21" width="53.774871826171875" y="87" x="54.113128662109375" class="er attributeBoxEven"/><text style="dominant-baseline: middle; font-size: 10.2px;" transform="translate(59.113128662109375,97.5)" y="0" x="0" id="text-entity-History-fb6ecad1-3608-4806-81ab-b0046040dd20-attr-4-name" class="er entityLabel">data</text><rect height="21" width="23.79498291015625" y="87" x="107.88800048828125" class="er attributeBoxEven"/><text style="dominant-baseline: middle; font-size: 10.2px;" transform="translate(112.88800048828125,97.5)" y="0" x="0" id="text-entity-History-fb6ecad1-3608-4806-81ab-b0046040dd20-attr-4-key" class="er entityLabel"/><rect height="21" width="45.453216552734375" y="87" x="131.6829833984375" class="er attributeBoxEven"/><text style="dominant-baseline: middle; font-size: 10.2px;" transform="translate(136.6829833984375,97.5)" y="0" x="0" id="text-entity-History-fb6ecad1-3608-4806-81ab-b0046040dd20-attr-4-comment" class="er entityLabel">nullable</text><rect height="21" width="54.113128662109375" y="108" x="0" class="er attributeBoxOdd"/><text style="dominant-baseline: middle; font-size: 10.2px;" transform="translate(5,118.5)" y="0" x="0" id="text-entity-History-fb6ecad1-3608-4806-81ab-b0046040dd20-attr-5-type" class="er entityLabel">DateTime</text><rect height="21" width="53.774871826171875" y="108" x="54.113128662109375" class="er attributeBoxOdd"/><text style="dominant-baseline: middle; font-size: 10.2px;" transform="translate(59.113128662109375,118.5)" y="0" x="0" id="text-entity-History-fb6ecad1-3608-4806-81ab-b0046040dd20-attr-5-name" class="er entityLabel">createdAt</text><rect height="21" width="23.79498291015625" y="108" x="107.88800048828125" class="er attributeBoxOdd"/><text style="dominant-baseline: middle; font-size: 10.2px;" transform="translate(112.88800048828125,118.5)" y="0" x="0" id="text-entity-History-fb6ecad1-3608-4806-81ab-b0046040dd20-attr-5-key" class="er entityLabel"/><rect height="21" width="45.453216552734375" y="108" x="131.6829833984375" class="er attributeBoxOdd"/><text style="dominant-baseline: middle; font-size: 10.2px;" transform="translate(136.6829833984375,118.5)" y="0" x="0" id="text-entity-History-fb6ecad1-3608-4806-81ab-b0046040dd20-attr-5-comment" class="er entityLabel"/></g><rect height="14" width="91.03515625" y="547" x="70.1170654296875" class="er relationshipLabelBox"/><text style="text-anchor: middle; dominant-baseline: middle; font-size: 12px;" y="554" x="115.6346435546875" id="rel1" class="er relationshipLabel">enum:recurrence</text><rect height="14" width="23.0078125" y="192" x="104.1307373046875" class="er relationshipLabelBox"/><text style="text-anchor: middle; dominant-baseline: middle; font-size: 12px;" y="199" x="115.6346435546875" id="rel2" class="er relationshipLabel">task</text></svg>